M48
; DRILL file {KiCad 9.0.7} date 2026-01-22T21:49:50+0100
; FORMAT={-:-/ absolute / metric / decimal}
; #@! TF.CreationDate,2026-01-22T21:49:50+01:00
; #@! TF.GenerationSoftware,Kicad,Pcbnew,9.0.7
; #@! TF.FileFunction,Plated,1,2,PTH
FMAT,2
METRIC
; #@! TA.AperFunction,Plated,PTH,ComponentDrill
T1C0.200
; #@! TA.AperFunction,Plated,PTH,ViaDrill
T2C0.400
%
G90
G05
T1
X162.51Y-122.923
X162.51Y-124.923
X164.51Y-122.923
X164.51Y-124.923
T2
X82.325Y-75.784
X82.883Y-129.357
X82.907Y-126.515
X82.918Y-95.052
X83.598Y-75.918
X84.487Y-90.975
X85.319Y-117.297
X86.927Y-95.052
X93.486Y-75.674
X98.82Y-83.673
X113.378Y-78.641
X114.097Y-79.396
X114.223Y-86.56
X135.618Y-79.466
X136.023Y-80.744
X146.144Y-87.27
X146.392Y-76.229
X146.968Y-90.837
X147.393Y-92.049
X149.186Y-84.346
X159.384Y-122.891
X161.99Y-79.878
X162.017Y-128.664
X162.249Y-113.3
X162.291Y-78.732
X162.536Y-120.611
X162.99Y-89.713
X163.509Y-92.421
X163.536Y-128.638
X164.013Y-126.753
X164.582Y-120.536
X165.069Y-128.703
X165.777Y-133.93
X166.907Y-123.864
M30
