%TF.GenerationSoftware,KiCad,Pcbnew,9.0.7-9.0.7~ubuntu24.04.1*%
%TF.CreationDate,2026-02-10T19:55:17+01:00*%
%TF.ProjectId,RamadanCard,52616d61-6461-46e4-9361-72642e6b6963,rev?*%
%TF.SameCoordinates,Original*%
%TF.FileFunction,Copper,L2,Bot*%
%TF.FilePolarity,Positive*%
%FSLAX46Y46*%
G04 Gerber Fmt 4.6, Leading zero omitted, Abs format (unit mm)*
G04 Created by KiCad (PCBNEW 9.0.7-9.0.7~ubuntu24.04.1) date 2026-02-10 19:55:17*
%MOMM*%
%LPD*%
G01*
G04 APERTURE LIST*
%TA.AperFunction,ComponentPad*%
%ADD10C,0.500000*%
%TD*%
%TA.AperFunction,SMDPad,CuDef*%
%ADD11R,2.500000X2.500000*%
%TD*%
%TA.AperFunction,SMDPad,CuDef*%
%ADD12C,1.500000*%
%TD*%
%TA.AperFunction,SMDPad,CuDef*%
%ADD13C,7.000000*%
%TD*%
%TA.AperFunction,SMDPad,CuDef*%
%ADD14R,5.600000X1.750000*%
%TD*%
%TA.AperFunction,ViaPad*%
%ADD15C,0.800000*%
%TD*%
%TA.AperFunction,Conductor*%
%ADD16C,0.250000*%
%TD*%
G04 APERTURE END LIST*
D10*
%TO.P,U1,21,GND*%
%TO.N,GND*%
X162510400Y-122922700D03*
X162510400Y-124922700D03*
D11*
X163510400Y-123922700D03*
D10*
X164510400Y-122922700D03*
X164510400Y-124922700D03*
%TD*%
D12*
%TO.P,TP2,1,1*%
%TO.N,Net-(U1-PA5)*%
X162113800Y-115229700D03*
%TD*%
%TO.P,TP3,1,1*%
%TO.N,Net-(U1-PA6)*%
X164992000Y-115209800D03*
%TD*%
%TO.P,TP1,1,1*%
%TO.N,Net-(U1-PA4)*%
X159481800Y-115179100D03*
%TD*%
%TO.P,TP6,1,1*%
%TO.N,GND*%
X168723400Y-133881100D03*
%TD*%
D13*
%TO.P,H1,1,1*%
%TO.N,Net-(U2-IN)*%
X103688800Y-116441800D03*
D14*
%TO.P,H1,2,2*%
%TO.N,Net-(H1-Pad2)*%
X103688800Y-127316800D03*
X103688800Y-105566800D03*
%TD*%
D12*
%TO.P,TP5,1,1*%
%TO.N,+6V*%
X168743900Y-131234100D03*
%TD*%
%TO.P,TP4,1,1*%
%TO.N,Net-(U1-~{RESET}{slash}PB3)*%
X167552500Y-115168800D03*
%TD*%
D13*
%TO.P,H2,1,1*%
%TO.N,Net-(H1-Pad2)*%
X138364200Y-116242900D03*
D14*
%TO.P,H2,2,2*%
%TO.N,Net-(J1-COM)*%
X138364200Y-105367900D03*
X138364200Y-127117900D03*
%TD*%
D15*
%TO.N,Net-(D4-DOUT)*%
X154487000Y-99087600D03*
X154362000Y-87490100D03*
%TO.N,Net-(U1-PA5)*%
X162536000Y-120611000D03*
%TO.N,Net-(J1-COM)*%
X82883300Y-129357000D03*
%TO.N,Net-(U2-IN)*%
X162017000Y-128664000D03*
%TO.N,Net-(D1-DIN)*%
X162249000Y-113300000D03*
X162604000Y-88754400D03*
%TO.N,Net-(U1-PA6)*%
X164582000Y-120536000D03*
%TO.N,Net-(U1-~{RESET}{slash}PB3)*%
X166907000Y-123864000D03*
%TO.N,Net-(U1-PA4)*%
X159384000Y-122891000D03*
%TO.N,+6V*%
X163459000Y-91277500D03*
X165069000Y-128703000D03*
X164013000Y-126753000D03*
X166387000Y-79915300D03*
%TO.N,GND*%
X165777000Y-133930000D03*
X82907000Y-126515000D03*
X163536000Y-128638000D03*
X85318700Y-117297000D03*
X161789000Y-87222300D03*
X162191000Y-76524900D03*
X97517100Y-92473100D03*
X78261500Y-89071200D03*
X79042800Y-102640000D03*
X142055000Y-79976700D03*
X133178000Y-90329400D03*
X151741000Y-84720200D03*
X133251000Y-75161400D03*
X121398000Y-83131700D03*
X88292900Y-82825500D03*
X149487000Y-95656600D03*
X114102000Y-77358200D03*
X155260000Y-73703700D03*
X86963400Y-76127900D03*
%TD*%
D16*
%TO.N,Net-(J1-COM)*%
X138364200Y-127117900D02*
X138364100Y-127117900D01*
X135238000Y-127118000D02*
X135238000Y-129024000D01*
X138364100Y-127117900D02*
X138364000Y-127118000D01*
X138364000Y-127118000D02*
X135238000Y-127118000D01*
X135238000Y-129024000D02*
X135000000Y-129262000D01*
%TO.N,+6V*%
X166206000Y-127565000D02*
X166059000Y-127565000D01*
X166059000Y-127565000D02*
X165247000Y-126753000D01*
X165885641Y-127885641D02*
X166206000Y-127565000D01*
X164753000Y-126753000D02*
X164013000Y-126753000D01*
%TO.N,Net-(D4-DOUT)*%
X154362000Y-98962700D02*
X154362000Y-87490100D01*
X154487000Y-99087600D02*
X154362000Y-98962700D01*
%TO.N,Net-(U1-PA5)*%
X162114000Y-120188000D02*
X162536000Y-120611000D01*
X162114000Y-115230000D02*
X162114000Y-120188000D01*
X162114000Y-115229900D02*
X162114000Y-115230000D01*
X162113800Y-115229700D02*
X162114000Y-115229900D01*
%TO.N,Net-(J1-COM)*%
X82914500Y-129389000D02*
X82883300Y-129357000D01*
X93261900Y-118979000D02*
X97135600Y-118979000D01*
X82883300Y-129357000D02*
X93261900Y-118979000D01*
X136784000Y-103787000D02*
X137574000Y-104578000D01*
X99869700Y-103787000D02*
X136784000Y-103787000D01*
X97135600Y-106522000D02*
X99869700Y-103787000D01*
X97135600Y-118979000D02*
X97135600Y-106522000D01*
X137969000Y-104973000D02*
X138364000Y-105368000D01*
X137574000Y-104578000D02*
X137969000Y-104973000D01*
X137574000Y-104578000D02*
X137969000Y-104973000D01*
X97135600Y-126008000D02*
X97135600Y-118979000D01*
X100390000Y-129262000D02*
X97135600Y-126008000D01*
X135000000Y-129262000D02*
X100390000Y-129262000D01*
X138364100Y-105367900D02*
X138364000Y-105368000D01*
X138364200Y-105367900D02*
X138364100Y-105367900D01*
%TO.N,Net-(H1-Pad2)*%
X114365000Y-116243000D02*
X103689000Y-105567000D01*
X138364000Y-116243000D02*
X114365000Y-116243000D01*
X138364100Y-116242900D02*
X138364000Y-116243000D01*
X138364200Y-116242900D02*
X138364100Y-116242900D01*
X103688800Y-105566800D02*
X103689000Y-105567000D01*
X99863800Y-123492000D02*
X101776000Y-125404000D01*
X99863800Y-109392000D02*
X99863800Y-123492000D01*
X103689000Y-105567000D02*
X99863800Y-109392000D01*
X103689000Y-127317000D02*
X103688800Y-127316800D01*
X100562000Y-127317000D02*
X103689000Y-127317000D01*
X100562000Y-126241000D02*
X100562000Y-127317000D01*
X101398000Y-125404000D02*
X100562000Y-126241000D01*
X101776000Y-125404000D02*
X101398000Y-125404000D01*
X103688800Y-127316800D02*
X101776000Y-125404000D01*
%TO.N,Net-(U2-IN)*%
X110086000Y-122839000D02*
X103689000Y-116442000D01*
X156193000Y-122839000D02*
X110086000Y-122839000D01*
X162017000Y-128664000D02*
X156193000Y-122839000D01*
X103688800Y-116441800D02*
X103689000Y-116442000D01*
%TO.N,Net-(D1-DIN)*%
X162604000Y-112686000D02*
X162604000Y-88754400D01*
X162120000Y-113170000D02*
X162604000Y-112686000D01*
X162249000Y-113300000D02*
X162120000Y-113170000D01*
X162120000Y-113170000D02*
X161990000Y-113040000D01*
%TO.N,Net-(U1-PA6)*%
X164992000Y-120126000D02*
X164582000Y-120536000D01*
X164992000Y-115210000D02*
X164992000Y-120126000D01*
X164992000Y-115209800D02*
X164992000Y-115210000D01*
%TO.N,Net-(U1-~{RESET}{slash}PB3)*%
X167553000Y-115169000D02*
X167553000Y-119194000D01*
X167553000Y-123219000D02*
X166907000Y-123864000D01*
X167553000Y-119194000D02*
X167553000Y-123219000D01*
X167552000Y-117182000D02*
X167552000Y-115169000D01*
X167552000Y-119194000D02*
X167552000Y-117182000D01*
X167553000Y-119194000D02*
X167552000Y-119194000D01*
X167552000Y-117182000D02*
X167552000Y-115169000D01*
X167552200Y-115168800D02*
X167552000Y-115169000D01*
X167552500Y-115168800D02*
X167552200Y-115168800D01*
%TO.N,Net-(U1-PA4)*%
X159482000Y-116669000D02*
X159482000Y-118159000D01*
X159481800Y-116296300D02*
X159481800Y-115179100D01*
X159482000Y-116296500D02*
X159481800Y-116296300D01*
X159482000Y-116669000D02*
X159482000Y-116296500D01*
X159482000Y-116296500D02*
X159482000Y-115924000D01*
X159482000Y-116669000D02*
X159482000Y-118159000D01*
X159482000Y-122794000D02*
X159384000Y-122891000D01*
X159482000Y-118159000D02*
X159482000Y-122794000D01*
%TO.N,+6V*%
X168744000Y-130668000D02*
X168744000Y-131234000D01*
X165069000Y-128703000D02*
X165885641Y-127885641D01*
X168744000Y-131234000D02*
X168744000Y-130668000D01*
X168744000Y-130103000D02*
X166206000Y-127565000D01*
X168744000Y-130668000D02*
X168744000Y-130103000D01*
X164013000Y-126753000D02*
X165247000Y-126753000D01*
X166109000Y-93928000D02*
X163459000Y-91277500D01*
X166109000Y-125891000D02*
X166109000Y-93928000D01*
X165247000Y-126753000D02*
X166109000Y-125891000D01*
X166387000Y-88349100D02*
X166387000Y-79915300D01*
X163459000Y-91277500D02*
X166387000Y-88349100D01*
X168743900Y-131234100D02*
X168744000Y-131234000D01*
%TO.N,GND*%
X165825000Y-133881000D02*
X165777000Y-133930000D01*
%TD*%
%TA.AperFunction,Conductor*%
%TO.N,GND*%
G36*
X167011588Y-70548760D02*
G01*
X167379179Y-70563972D01*
X167384834Y-70564337D01*
X167469129Y-70571713D01*
X167473577Y-70572185D01*
X167796016Y-70612384D01*
X167802112Y-70613300D01*
X167880817Y-70627179D01*
X167884685Y-70627926D01*
X168207925Y-70695710D01*
X168208044Y-70695735D01*
X168214688Y-70697319D01*
X168283481Y-70715753D01*
X168286686Y-70716660D01*
X168612299Y-70813607D01*
X168619279Y-70815914D01*
X168672749Y-70835376D01*
X168675311Y-70836342D01*
X169005602Y-70965229D01*
X169012920Y-70968359D01*
X169043068Y-70982417D01*
X169045040Y-70983359D01*
X169383805Y-71148977D01*
X169383879Y-71149013D01*
X169392890Y-71153890D01*
X169739053Y-71360164D01*
X169747609Y-71365755D01*
X169900706Y-71475067D01*
X170075549Y-71599906D01*
X170083636Y-71606200D01*
X170391125Y-71866634D01*
X170398665Y-71873576D01*
X170683577Y-72158493D01*
X170690518Y-72166032D01*
X170950946Y-72473522D01*
X170957241Y-72481610D01*
X171191355Y-72809511D01*
X171191385Y-72809552D01*
X171196990Y-72818132D01*
X171403246Y-73164277D01*
X171408124Y-73173290D01*
X171574774Y-73514179D01*
X171575756Y-73516235D01*
X171588527Y-73543623D01*
X171591661Y-73550952D01*
X171591907Y-73551582D01*
X171721620Y-73884006D01*
X171722589Y-73886576D01*
X171734677Y-73919788D01*
X171740948Y-73937017D01*
X171743270Y-73944043D01*
X171841108Y-74272670D01*
X171842038Y-74275960D01*
X171859558Y-74341349D01*
X171861144Y-74347993D01*
X171929654Y-74674721D01*
X171930410Y-74678639D01*
X171943619Y-74753558D01*
X171944550Y-74759749D01*
X171985193Y-75085786D01*
X171985673Y-75090318D01*
X171992693Y-75170558D01*
X171993059Y-75176239D01*
X172008421Y-75547555D01*
X172008527Y-75552681D01*
X172008527Y-133517432D01*
X172008421Y-133522556D01*
X171993092Y-133893165D01*
X171992726Y-133898848D01*
X171985951Y-133976289D01*
X171985471Y-133980820D01*
X171944483Y-134309643D01*
X171943551Y-134315837D01*
X171930898Y-134387597D01*
X171930143Y-134391512D01*
X171860973Y-134721392D01*
X171859387Y-134728038D01*
X171842836Y-134789808D01*
X171841906Y-134793097D01*
X171743005Y-135125298D01*
X171740683Y-135132325D01*
X171723864Y-135178537D01*
X171722858Y-135181204D01*
X171591293Y-135518371D01*
X171588158Y-135525701D01*
X171577718Y-135548089D01*
X171576737Y-135550143D01*
X171408210Y-135894871D01*
X171403331Y-135903885D01*
X171197068Y-136250035D01*
X171191463Y-136258615D01*
X170957315Y-136586557D01*
X170951020Y-136594645D01*
X170690592Y-136902128D01*
X170683651Y-136909668D01*
X170398715Y-137194600D01*
X170391174Y-137201541D01*
X170083698Y-137461955D01*
X170075611Y-137468250D01*
X169747660Y-137702399D01*
X169739080Y-137708004D01*
X169392928Y-137914262D01*
X169383914Y-137919140D01*
X169039161Y-138087674D01*
X169037107Y-138088655D01*
X169014744Y-138099083D01*
X169007413Y-138102219D01*
X168670221Y-138233788D01*
X168667556Y-138234792D01*
X168621358Y-138251606D01*
X168614329Y-138253929D01*
X168282160Y-138352816D01*
X168278872Y-138353746D01*
X168217058Y-138370308D01*
X168210411Y-138371894D01*
X167880559Y-138441051D01*
X167876646Y-138441806D01*
X167804873Y-138454461D01*
X167798677Y-138455393D01*
X167469836Y-138496379D01*
X167465305Y-138496859D01*
X167387898Y-138503630D01*
X167382216Y-138503996D01*
X167009967Y-138519388D01*
X167004844Y-138519494D01*
X78204841Y-138519494D01*
X78199716Y-138519388D01*
X77832114Y-138504182D01*
X77826431Y-138503816D01*
X77742241Y-138496450D01*
X77737710Y-138495970D01*
X77415354Y-138455786D01*
X77409160Y-138454854D01*
X77330444Y-138440974D01*
X77326530Y-138440219D01*
X77003352Y-138372455D01*
X76996705Y-138370869D01*
X76927619Y-138352357D01*
X76924331Y-138351427D01*
X76599207Y-138254632D01*
X76592177Y-138252308D01*
X76538070Y-138232614D01*
X76535407Y-138231610D01*
X76205910Y-138103039D01*
X76198580Y-138099904D01*
X76167442Y-138085384D01*
X76165386Y-138084402D01*
X75827393Y-137919166D01*
X75818380Y-137914288D01*
X75472234Y-137708028D01*
X75463654Y-137702423D01*
X75135705Y-137468270D01*
X75127618Y-137461975D01*
X74820139Y-137201553D01*
X74812599Y-137194612D01*
X74527676Y-136909688D01*
X74520734Y-136902148D01*
X74395742Y-136754569D01*
X74260292Y-136594642D01*
X74254018Y-136586582D01*
X74019856Y-136258615D01*
X74014265Y-136250057D01*
X74004948Y-136234421D01*
X73807987Y-135903877D01*
X73803125Y-135894893D01*
X73637469Y-135556035D01*
X73636588Y-135554191D01*
X73622460Y-135523894D01*
X73619337Y-135516590D01*
X73490391Y-135186127D01*
X73489386Y-135183463D01*
X73470069Y-135130391D01*
X73467746Y-135123362D01*
X73408625Y-134924777D01*
X168033273Y-134924777D01*
X168033273Y-134924778D01*
X168068258Y-134950196D01*
X168243564Y-135039518D01*
X168430694Y-135100321D01*
X168625018Y-135131100D01*
X168821782Y-135131100D01*
X169016105Y-135100321D01*
X169203235Y-135039518D01*
X169378543Y-134950195D01*
X169413525Y-134924778D01*
X169413526Y-134924778D01*
X168723401Y-134234653D01*
X168723400Y-134234653D01*
X168033273Y-134924777D01*
X73408625Y-134924777D01*
X73370631Y-134797158D01*
X73369731Y-134793974D01*
X73351502Y-134725942D01*
X73349916Y-134719296D01*
X73318869Y-134571226D01*
X73281907Y-134394943D01*
X73281184Y-134391195D01*
X73267493Y-134313552D01*
X73266571Y-134307422D01*
X73226231Y-133983791D01*
X73225758Y-133979332D01*
X73218505Y-133896436D01*
X73218140Y-133890760D01*
X73217741Y-133881101D01*
X73213672Y-133782717D01*
X167473400Y-133782717D01*
X167473400Y-133979482D01*
X167504178Y-134173805D01*
X167564981Y-134360935D01*
X167654305Y-134536245D01*
X167679719Y-134571225D01*
X167679720Y-134571225D01*
X168369846Y-133881100D01*
X168369846Y-133881099D01*
X169076953Y-133881099D01*
X169076953Y-133881101D01*
X169767078Y-134571226D01*
X169767078Y-134571225D01*
X169792495Y-134536243D01*
X169881818Y-134360935D01*
X169942621Y-134173805D01*
X169973400Y-133979482D01*
X169973400Y-133782717D01*
X169942621Y-133588394D01*
X169881818Y-133401264D01*
X169792496Y-133225958D01*
X169767078Y-133190973D01*
X169767077Y-133190973D01*
X169076953Y-133881099D01*
X168369846Y-133881099D01*
X167679720Y-133190972D01*
X167679720Y-133190973D01*
X167654302Y-133225959D01*
X167654299Y-133225963D01*
X167564982Y-133401261D01*
X167504178Y-133588394D01*
X167473400Y-133782717D01*
X73213672Y-133782717D01*
X73202884Y-133521898D01*
X73202779Y-133516786D01*
X73202779Y-131708295D01*
X78524099Y-131708295D01*
X78551018Y-131843622D01*
X78551021Y-131843632D01*
X78603821Y-131971104D01*
X78603828Y-131971117D01*
X78680485Y-132085841D01*
X78680488Y-132085845D01*
X78778054Y-132183411D01*
X78778058Y-132183414D01*
X78892782Y-132260071D01*
X78892795Y-132260078D01*
X78997926Y-132303624D01*
X79020272Y-132312880D01*
X79020276Y-132312880D01*
X79020277Y-132312881D01*
X79155604Y-132339800D01*
X79155607Y-132339800D01*
X79293595Y-132339800D01*
X79384641Y-132321689D01*
X79428928Y-132312880D01*
X79556411Y-132260075D01*
X79671142Y-132183414D01*
X79768714Y-132085842D01*
X79845375Y-131971111D01*
X79898180Y-131843628D01*
X79906989Y-131799341D01*
X79925100Y-131708295D01*
X79925100Y-131570304D01*
X79898181Y-131434977D01*
X79898180Y-131434976D01*
X79898180Y-131434972D01*
X79855742Y-131332517D01*
X79845378Y-131307495D01*
X79845371Y-131307482D01*
X79768714Y-131192758D01*
X79768711Y-131192754D01*
X79671145Y-131095188D01*
X79671141Y-131095185D01*
X79556417Y-131018528D01*
X79556404Y-131018521D01*
X79428932Y-130965721D01*
X79428922Y-130965718D01*
X79293595Y-130938800D01*
X79293593Y-130938800D01*
X79155607Y-130938800D01*
X79155605Y-130938800D01*
X79020277Y-130965718D01*
X79020267Y-130965721D01*
X78892795Y-131018521D01*
X78892782Y-131018528D01*
X78778058Y-131095185D01*
X78778054Y-131095188D01*
X78680488Y-131192754D01*
X78680485Y-131192758D01*
X78603828Y-131307482D01*
X78603821Y-131307495D01*
X78551021Y-131434967D01*
X78551018Y-131434977D01*
X78524100Y-131570304D01*
X78524100Y-131570307D01*
X78524100Y-131708293D01*
X78524100Y-131708295D01*
X78524099Y-131708295D01*
X73202779Y-131708295D01*
X73202779Y-128708295D01*
X78524099Y-128708295D01*
X78551018Y-128843622D01*
X78551021Y-128843632D01*
X78603821Y-128971104D01*
X78603828Y-128971117D01*
X78680485Y-129085841D01*
X78680488Y-129085845D01*
X78778054Y-129183411D01*
X78778058Y-129183414D01*
X78892782Y-129260071D01*
X78892795Y-129260078D01*
X78933741Y-129277038D01*
X79020272Y-129312880D01*
X79020276Y-129312880D01*
X79020277Y-129312881D01*
X79155604Y-129339800D01*
X79155607Y-129339800D01*
X79293595Y-129339800D01*
X79391701Y-129320285D01*
X79428928Y-129312880D01*
X79536544Y-129268304D01*
X81982800Y-129268304D01*
X81982800Y-129445695D01*
X82017403Y-129619655D01*
X82017406Y-129619667D01*
X82085283Y-129783540D01*
X82085290Y-129783553D01*
X82183835Y-129931034D01*
X82183838Y-129931038D01*
X82309261Y-130056461D01*
X82309265Y-130056464D01*
X82456746Y-130155009D01*
X82456759Y-130155016D01*
X82565845Y-130200200D01*
X82620634Y-130222894D01*
X82620636Y-130222894D01*
X82620641Y-130222896D01*
X82794604Y-130257499D01*
X82794607Y-130257500D01*
X82794609Y-130257500D01*
X82971993Y-130257500D01*
X82971994Y-130257499D01*
X83029982Y-130245964D01*
X83145958Y-130222896D01*
X83145961Y-130222894D01*
X83145966Y-130222894D01*
X83309847Y-130155013D01*
X83457335Y-130056464D01*
X83582764Y-129931035D01*
X83681313Y-129783547D01*
X83682644Y-129780335D01*
X83716458Y-129698698D01*
X83749194Y-129619666D01*
X83749194Y-129619661D01*
X83749197Y-129619655D01*
X83783799Y-129445695D01*
X83783800Y-129445693D01*
X83783800Y-129392482D01*
X83803485Y-129325443D01*
X83820121Y-129304798D01*
X84416354Y-128708600D01*
X90933796Y-122191534D01*
X93484662Y-119640816D01*
X93545986Y-119607333D01*
X93572341Y-119604500D01*
X96386100Y-119604500D01*
X96453139Y-119624185D01*
X96498894Y-119676989D01*
X96510100Y-119728500D01*
X96510100Y-125946411D01*
X96510096Y-125946432D01*
X96510100Y-126016839D01*
X96510100Y-126069630D01*
X96510103Y-126069645D01*
X96520023Y-126119501D01*
X96521615Y-126127499D01*
X96521614Y-126127499D01*
X96521616Y-126127507D01*
X96534135Y-126190447D01*
X96534145Y-126190481D01*
X96534148Y-126190488D01*
X96557710Y-126247362D01*
X96557711Y-126247369D01*
X96557713Y-126247369D01*
X96581290Y-126304288D01*
X96581306Y-126304319D01*
X96614685Y-126354267D01*
X96614689Y-126354273D01*
X96649740Y-126406731D01*
X96649766Y-126406762D01*
X96688311Y-126445303D01*
X96688326Y-126445317D01*
X96741453Y-126498445D01*
X96741523Y-126498507D01*
X99942515Y-129699106D01*
X99991267Y-129747858D01*
X99991285Y-129747870D01*
X99991297Y-129747882D01*
X100039866Y-129780331D01*
X100039870Y-129780335D01*
X100039871Y-129780334D01*
X100093714Y-129816311D01*
X100093716Y-129816312D01*
X100093718Y-129816313D01*
X100093748Y-129816330D01*
X100111788Y-129823800D01*
X100149194Y-129839291D01*
X100149200Y-129839296D01*
X100149201Y-129839295D01*
X100206614Y-129863076D01*
X100206613Y-129863076D01*
X100207562Y-129863469D01*
X100207584Y-129863473D01*
X100207586Y-129863474D01*
X100267000Y-129875288D01*
X100328394Y-129887500D01*
X100328407Y-129887500D01*
X100328417Y-129887501D01*
X100328432Y-129887504D01*
X100398835Y-129887500D01*
X100398840Y-129887500D01*
X135061607Y-129887500D01*
X135122029Y-129875481D01*
X135182452Y-129863463D01*
X135232170Y-129842869D01*
X135238127Y-129840401D01*
X135238129Y-129840401D01*
X135282652Y-129821958D01*
X135296286Y-129816312D01*
X135347509Y-129782084D01*
X135350129Y-129780334D01*
X135360271Y-129773556D01*
X135398733Y-129747858D01*
X135485858Y-129660733D01*
X135485859Y-129660731D01*
X135492925Y-129653665D01*
X135492928Y-129653661D01*
X135636729Y-129509860D01*
X135636733Y-129509858D01*
X135723858Y-129422733D01*
X135792311Y-129320286D01*
X135792312Y-129320285D01*
X135834561Y-129218286D01*
X135839463Y-129206452D01*
X135863500Y-129085606D01*
X135863500Y-128617399D01*
X135883185Y-128550360D01*
X135935989Y-128504605D01*
X135987500Y-128493399D01*
X141212071Y-128493399D01*
X141212072Y-128493399D01*
X141271683Y-128486991D01*
X141406531Y-128436696D01*
X141521746Y-128350446D01*
X141607996Y-128235231D01*
X141658291Y-128100383D01*
X141664700Y-128040773D01*
X141664699Y-126195028D01*
X141658291Y-126135417D01*
X141655338Y-126127500D01*
X141607997Y-126000571D01*
X141607993Y-126000564D01*
X141521747Y-125885355D01*
X141521744Y-125885352D01*
X141406535Y-125799106D01*
X141406528Y-125799102D01*
X141271682Y-125748808D01*
X141271683Y-125748808D01*
X141212083Y-125742401D01*
X141212081Y-125742400D01*
X141212073Y-125742400D01*
X141212064Y-125742400D01*
X135516329Y-125742400D01*
X135516323Y-125742401D01*
X135456716Y-125748808D01*
X135321871Y-125799102D01*
X135321864Y-125799106D01*
X135206655Y-125885352D01*
X135206652Y-125885355D01*
X135120406Y-126000564D01*
X135120402Y-126000571D01*
X135070108Y-126135417D01*
X135064532Y-126187286D01*
X135063701Y-126195023D01*
X135063700Y-126195035D01*
X135063700Y-126430306D01*
X135044015Y-126497345D01*
X134991211Y-126543100D01*
X134987153Y-126544867D01*
X134941717Y-126563687D01*
X134941707Y-126563692D01*
X134839267Y-126632141D01*
X134839263Y-126632144D01*
X134752144Y-126719263D01*
X134752141Y-126719267D01*
X134683692Y-126821707D01*
X134683687Y-126821716D01*
X134636538Y-126935545D01*
X134636535Y-126935555D01*
X134612500Y-127056389D01*
X134612500Y-128512500D01*
X134592815Y-128579539D01*
X134540011Y-128625294D01*
X134488500Y-128636500D01*
X107028825Y-128636500D01*
X106961786Y-128616815D01*
X106916031Y-128564011D01*
X106906087Y-128494853D01*
X106929559Y-128438188D01*
X106930678Y-128436693D01*
X106932596Y-128434131D01*
X106982891Y-128299283D01*
X106989300Y-128239673D01*
X106989299Y-126393928D01*
X106982891Y-126334317D01*
X106979960Y-126326459D01*
X106932597Y-126199471D01*
X106932593Y-126199464D01*
X106846347Y-126084255D01*
X106846344Y-126084252D01*
X106731135Y-125998006D01*
X106731128Y-125998002D01*
X106596282Y-125947708D01*
X106596283Y-125947708D01*
X106536683Y-125941301D01*
X106536681Y-125941300D01*
X106536673Y-125941300D01*
X106536665Y-125941300D01*
X103249253Y-125941300D01*
X103182214Y-125921615D01*
X103161572Y-125904981D01*
X102268928Y-125012338D01*
X102268912Y-125012322D01*
X102266176Y-125009585D01*
X102266173Y-125009580D01*
X102266134Y-125009537D01*
X102214236Y-124957644D01*
X102214231Y-124957640D01*
X102174733Y-124918142D01*
X102174724Y-124918135D01*
X102170784Y-124914196D01*
X102170771Y-124914184D01*
X100525623Y-123269209D01*
X100492135Y-123207887D01*
X100489300Y-123181523D01*
X100489300Y-119195780D01*
X100508985Y-119128741D01*
X100561789Y-119082986D01*
X100630947Y-119073042D01*
X100694503Y-119102067D01*
X100709150Y-119117112D01*
X100718694Y-119128741D01*
X100721056Y-119131619D01*
X100998982Y-119409545D01*
X100998987Y-119409549D01*
X100998988Y-119409550D01*
X101302831Y-119658907D01*
X101629651Y-119877282D01*
X101629660Y-119877287D01*
X101629662Y-119877288D01*
X101976295Y-120062567D01*
X101976297Y-120062567D01*
X101976303Y-120062571D01*
X102339447Y-120212990D01*
X102715585Y-120327090D01*
X102715591Y-120327091D01*
X102715594Y-120327092D01*
X102715605Y-120327095D01*
X103101097Y-120403773D01*
X103492268Y-120442300D01*
X103492271Y-120442300D01*
X103885329Y-120442300D01*
X103885332Y-120442300D01*
X104276503Y-120403773D01*
X104351548Y-120388845D01*
X104661994Y-120327095D01*
X104662005Y-120327092D01*
X104662005Y-120327091D01*
X104662015Y-120327090D01*
X105038153Y-120212990D01*
X105401297Y-120062571D01*
X105747949Y-119877282D01*
X105958115Y-119736851D01*
X106024789Y-119715975D01*
X106092169Y-119734459D01*
X106114684Y-119752274D01*
X109600139Y-123237729D01*
X109600142Y-123237733D01*
X109687267Y-123324858D01*
X109722367Y-123348311D01*
X109789714Y-123393312D01*
X109852939Y-123419500D01*
X109903548Y-123440463D01*
X109935528Y-123446824D01*
X110024391Y-123464499D01*
X110024392Y-123464500D01*
X110024393Y-123464500D01*
X110024394Y-123464500D01*
X155882508Y-123464500D01*
X155949547Y-123484185D01*
X155970195Y-123500825D01*
X161080189Y-128611694D01*
X161113668Y-128673019D01*
X161116500Y-128699367D01*
X161116500Y-128752695D01*
X161151103Y-128926658D01*
X161151106Y-128926667D01*
X161218983Y-129090540D01*
X161218990Y-129090552D01*
X161317535Y-129238034D01*
X161317538Y-129238038D01*
X161442961Y-129363461D01*
X161442965Y-129363464D01*
X161590446Y-129462009D01*
X161590459Y-129462016D01*
X161705962Y-129509858D01*
X161754334Y-129529894D01*
X161754336Y-129529894D01*
X161754341Y-129529896D01*
X161928304Y-129564499D01*
X161928307Y-129564500D01*
X161928309Y-129564500D01*
X162105693Y-129564500D01*
X162105694Y-129564499D01*
X162163682Y-129552964D01*
X162279658Y-129529896D01*
X162279661Y-129529894D01*
X162279666Y-129529894D01*
X162443547Y-129462013D01*
X162591035Y-129363464D01*
X162716464Y-129238035D01*
X162815013Y-129090547D01*
X162882894Y-128926666D01*
X162899412Y-128843628D01*
X162917499Y-128752695D01*
X162917500Y-128752693D01*
X162917500Y-128575306D01*
X162917499Y-128575304D01*
X162882896Y-128401341D01*
X162882893Y-128401332D01*
X162815016Y-128237459D01*
X162815009Y-128237446D01*
X162716464Y-128089965D01*
X162716461Y-128089961D01*
X162591038Y-127964538D01*
X162591034Y-127964535D01*
X162443553Y-127865990D01*
X162443540Y-127865983D01*
X162279667Y-127798106D01*
X162279658Y-127798103D01*
X162105694Y-127763500D01*
X162105691Y-127763500D01*
X162052539Y-127763500D01*
X161985500Y-127743815D01*
X161964850Y-127727174D01*
X161637846Y-127400114D01*
X159458650Y-125220544D01*
X161760400Y-125220544D01*
X161766801Y-125280072D01*
X161766803Y-125280082D01*
X161775675Y-125303868D01*
X162245941Y-124833603D01*
X162307264Y-124800118D01*
X162376955Y-124805102D01*
X162421303Y-124833603D01*
X162439689Y-124851989D01*
X162425624Y-124866055D01*
X162410400Y-124902809D01*
X162410400Y-124942591D01*
X162425624Y-124979345D01*
X162453755Y-125007476D01*
X162490509Y-125022700D01*
X162530291Y-125022700D01*
X162567045Y-125007476D01*
X162581110Y-124993410D01*
X162599495Y-125011795D01*
X162632980Y-125073118D01*
X162627996Y-125142810D01*
X162599495Y-125187157D01*
X162129229Y-125657423D01*
X162153024Y-125666298D01*
X162212555Y-125672699D01*
X162212572Y-125672700D01*
X163260400Y-125672700D01*
X163260400Y-124172700D01*
X161760400Y-124172700D01*
X161760400Y-125220544D01*
X159458650Y-125220544D01*
X156683440Y-122444857D01*
X156678871Y-122440287D01*
X156678858Y-122440267D01*
X156632581Y-122393990D01*
X156632579Y-122393987D01*
X156591784Y-122353185D01*
X156591778Y-122353180D01*
X156591775Y-122353177D01*
X156591770Y-122353174D01*
X156591738Y-122353147D01*
X156591733Y-122353142D01*
X156538511Y-122317580D01*
X156489333Y-122284714D01*
X156489307Y-122284703D01*
X156489286Y-122284689D01*
X156489260Y-122284678D01*
X156468174Y-122275944D01*
X156430245Y-122260233D01*
X156430244Y-122260232D01*
X156429399Y-122259882D01*
X156375503Y-122237553D01*
X156375479Y-122237548D01*
X156375452Y-122237537D01*
X156375301Y-122237507D01*
X156375299Y-122237506D01*
X156314831Y-122225478D01*
X156314753Y-122225462D01*
X156314483Y-122225409D01*
X156254660Y-122213505D01*
X156254631Y-122213504D01*
X156254606Y-122213500D01*
X156253721Y-122213500D01*
X156198654Y-122213500D01*
X156198638Y-122213499D01*
X156125402Y-122213493D01*
X156125260Y-122213500D01*
X110396452Y-122213500D01*
X110329413Y-122193815D01*
X110308771Y-122177181D01*
X106999274Y-118867684D01*
X106965789Y-118806361D01*
X106970773Y-118736669D01*
X106983847Y-118711121D01*
X107124282Y-118500949D01*
X107309571Y-118154297D01*
X107459990Y-117791153D01*
X107574090Y-117415015D01*
X107574092Y-117415005D01*
X107574095Y-117414994D01*
X107650773Y-117029502D01*
X107659491Y-116940989D01*
X107689300Y-116638332D01*
X107689300Y-116245268D01*
X107650773Y-115854097D01*
X107644827Y-115824205D01*
X107574095Y-115468605D01*
X107574092Y-115468594D01*
X107574091Y-115468591D01*
X107574090Y-115468585D01*
X107459990Y-115092447D01*
X107309571Y-114729303D01*
X107287908Y-114688775D01*
X107124288Y-114382662D01*
X107124287Y-114382660D01*
X107124282Y-114382651D01*
X106905907Y-114055831D01*
X106656550Y-113751988D01*
X106656549Y-113751987D01*
X106656545Y-113751982D01*
X106378617Y-113474054D01*
X106074774Y-113224697D01*
X106074773Y-113224696D01*
X106074769Y-113224693D01*
X105747949Y-113006318D01*
X105747944Y-113006315D01*
X105747937Y-113006311D01*
X105401304Y-112821032D01*
X105401299Y-112821030D01*
X105368446Y-112807422D01*
X105224048Y-112747610D01*
X105038154Y-112670610D01*
X104662005Y-112556507D01*
X104661994Y-112556504D01*
X104276502Y-112479826D01*
X103981889Y-112450810D01*
X103885332Y-112441300D01*
X103492268Y-112441300D01*
X103403051Y-112450087D01*
X103101097Y-112479826D01*
X102715605Y-112556504D01*
X102715594Y-112556507D01*
X102339445Y-112670610D01*
X101976300Y-112821030D01*
X101976295Y-112821032D01*
X101629662Y-113006311D01*
X101629644Y-113006322D01*
X101302839Y-113224687D01*
X101302825Y-113224697D01*
X100998982Y-113474054D01*
X100721052Y-113751984D01*
X100709152Y-113766485D01*
X100651406Y-113805819D01*
X100581561Y-113807688D01*
X100521793Y-113771500D01*
X100491078Y-113708744D01*
X100489300Y-113687819D01*
X100489300Y-109702464D01*
X100508985Y-109635425D01*
X100525617Y-109614784D01*
X103161924Y-106978614D01*
X103223248Y-106945132D01*
X103249603Y-106942299D01*
X104128347Y-106942299D01*
X104195386Y-106961984D01*
X104216028Y-106978618D01*
X113879139Y-116641729D01*
X113879142Y-116641733D01*
X113966267Y-116728858D01*
X114017490Y-116763084D01*
X114068714Y-116797312D01*
X114149087Y-116830603D01*
X114182548Y-116844463D01*
X114242971Y-116856481D01*
X114303393Y-116868500D01*
X114303394Y-116868500D01*
X134308001Y-116868500D01*
X134375040Y-116888185D01*
X134420795Y-116940989D01*
X134429618Y-116968309D01*
X134478904Y-117216094D01*
X134478907Y-117216105D01*
X134593010Y-117592254D01*
X134743430Y-117955399D01*
X134743432Y-117955404D01*
X134928711Y-118302037D01*
X134928722Y-118302055D01*
X135147087Y-118628860D01*
X135147097Y-118628874D01*
X135396454Y-118932717D01*
X135674382Y-119210645D01*
X135674387Y-119210649D01*
X135674388Y-119210650D01*
X135978231Y-119460007D01*
X136305051Y-119678382D01*
X136305060Y-119678387D01*
X136305062Y-119678388D01*
X136651695Y-119863667D01*
X136651697Y-119863667D01*
X136651703Y-119863671D01*
X137014847Y-120014090D01*
X137390985Y-120128190D01*
X137390991Y-120128191D01*
X137390994Y-120128192D01*
X137391005Y-120128195D01*
X137776497Y-120204873D01*
X138167668Y-120243400D01*
X138167671Y-120243400D01*
X138560729Y-120243400D01*
X138560732Y-120243400D01*
X138951903Y-120204873D01*
X139040455Y-120187259D01*
X139337394Y-120128195D01*
X139337405Y-120128192D01*
X139337405Y-120128191D01*
X139337415Y-120128190D01*
X139713553Y-120014090D01*
X140076697Y-119863671D01*
X140423349Y-119678382D01*
X140750169Y-119460007D01*
X141054012Y-119210650D01*
X141331950Y-118932712D01*
X141581307Y-118628869D01*
X141799682Y-118302049D01*
X141984971Y-117955397D01*
X142135390Y-117592253D01*
X142249490Y-117216115D01*
X142249492Y-117216105D01*
X142249495Y-117216094D01*
X142326174Y-116830601D01*
X142364700Y-116439428D01*
X142364700Y-116046371D01*
X142358502Y-115983446D01*
X142326173Y-115655197D01*
X142318675Y-115617500D01*
X142249495Y-115269705D01*
X142249492Y-115269694D01*
X142249491Y-115269691D01*
X142249490Y-115269685D01*
X142192155Y-115080677D01*
X158231300Y-115080677D01*
X158231300Y-115277522D01*
X158262090Y-115471926D01*
X158322917Y-115659129D01*
X158407028Y-115824205D01*
X158412276Y-115834505D01*
X158527972Y-115993746D01*
X158667154Y-116132928D01*
X158805187Y-116233215D01*
X158808289Y-116237238D01*
X158812924Y-116239321D01*
X158829406Y-116264624D01*
X158847851Y-116288544D01*
X158849038Y-116294763D01*
X158851060Y-116297866D01*
X158855820Y-116330271D01*
X158856298Y-116332769D01*
X158856300Y-116333093D01*
X158856300Y-116357906D01*
X158856457Y-116358697D01*
X158856498Y-116365267D01*
X158856467Y-116365372D01*
X158856500Y-116366030D01*
X158856500Y-122094697D01*
X158836815Y-122161736D01*
X158814193Y-122187149D01*
X158814272Y-122187228D01*
X158812921Y-122188578D01*
X158811171Y-122190545D01*
X158809965Y-122191534D01*
X158684538Y-122316961D01*
X158684535Y-122316965D01*
X158585990Y-122464446D01*
X158585983Y-122464459D01*
X158518106Y-122628332D01*
X158518103Y-122628341D01*
X158483500Y-122802304D01*
X158483500Y-122979695D01*
X158518103Y-123153658D01*
X158518106Y-123153667D01*
X158585983Y-123317540D01*
X158585990Y-123317553D01*
X158684535Y-123465034D01*
X158684538Y-123465038D01*
X158809961Y-123590461D01*
X158809965Y-123590464D01*
X158957446Y-123689009D01*
X158957459Y-123689016D01*
X159056316Y-123729963D01*
X159121334Y-123756894D01*
X159121336Y-123756894D01*
X159121341Y-123756896D01*
X159295304Y-123791499D01*
X159295307Y-123791500D01*
X159295309Y-123791500D01*
X159472693Y-123791500D01*
X159472694Y-123791499D01*
X159530682Y-123779964D01*
X159646658Y-123756896D01*
X159646661Y-123756894D01*
X159646666Y-123756894D01*
X159810547Y-123689013D01*
X159958035Y-123590464D01*
X160083464Y-123465035D01*
X160182013Y-123317547D01*
X160249894Y-123153666D01*
X160284500Y-122979691D01*
X160284500Y-122802309D01*
X160284500Y-122802306D01*
X160253357Y-122645743D01*
X160253356Y-122645741D01*
X160249895Y-122628341D01*
X160249894Y-122628334D01*
X160248453Y-122624855D01*
X161760400Y-122624855D01*
X161760400Y-123672700D01*
X163260400Y-123672700D01*
X163260400Y-122172700D01*
X162212555Y-122172700D01*
X162153027Y-122179101D01*
X162153020Y-122179103D01*
X162018313Y-122229345D01*
X162018306Y-122229349D01*
X161903212Y-122315509D01*
X161903209Y-122315512D01*
X161817049Y-122430606D01*
X161817045Y-122430613D01*
X161766803Y-122565320D01*
X161766801Y-122565327D01*
X161760400Y-122624855D01*
X160248453Y-122624855D01*
X160221753Y-122560394D01*
X160182016Y-122464459D01*
X160182009Y-122464446D01*
X160128398Y-122384212D01*
X160107520Y-122317535D01*
X160107500Y-122315321D01*
X160107500Y-116333387D01*
X160127185Y-116266348D01*
X160158612Y-116233070D01*
X160296446Y-116132928D01*
X160435628Y-115993746D01*
X160551324Y-115834505D01*
X160640684Y-115659125D01*
X160671648Y-115563825D01*
X160711086Y-115506151D01*
X160775444Y-115478953D01*
X160844291Y-115490868D01*
X160895766Y-115538112D01*
X160907510Y-115563826D01*
X160954917Y-115709729D01*
X161044276Y-115885105D01*
X161159972Y-116044346D01*
X161299154Y-116183528D01*
X161436985Y-116283669D01*
X161437385Y-116283959D01*
X161480051Y-116339289D01*
X161488500Y-116384277D01*
X161488500Y-120187259D01*
X161488427Y-120248866D01*
X161488500Y-120249235D01*
X161488500Y-120249604D01*
X161500456Y-120309716D01*
X161500455Y-120309716D01*
X161500482Y-120309853D01*
X161500484Y-120309857D01*
X161500570Y-120310296D01*
X161500673Y-120310814D01*
X161512322Y-120369739D01*
X161512463Y-120370081D01*
X161512537Y-120370452D01*
X161512540Y-120370461D01*
X161512541Y-120370462D01*
X161535991Y-120427074D01*
X161535990Y-120427074D01*
X161536290Y-120427798D01*
X161559338Y-120483629D01*
X161559546Y-120483941D01*
X161559689Y-120484286D01*
X161593738Y-120535244D01*
X161614682Y-120566669D01*
X161635483Y-120633370D01*
X161635500Y-120635439D01*
X161635500Y-120699695D01*
X161670103Y-120873658D01*
X161670106Y-120873667D01*
X161737983Y-121037540D01*
X161737990Y-121037553D01*
X161836535Y-121185034D01*
X161836538Y-121185038D01*
X161961961Y-121310461D01*
X161961965Y-121310464D01*
X162109446Y-121409009D01*
X162109459Y-121409016D01*
X162175813Y-121436500D01*
X162273334Y-121476894D01*
X162273336Y-121476894D01*
X162273341Y-121476896D01*
X162447304Y-121511499D01*
X162447307Y-121511500D01*
X162447309Y-121511500D01*
X162624693Y-121511500D01*
X162624694Y-121511499D01*
X162682682Y-121499964D01*
X162798658Y-121476896D01*
X162798661Y-121476894D01*
X162798666Y-121476894D01*
X162962547Y-121409013D01*
X163110035Y-121310464D01*
X163235464Y-121185035D01*
X163334013Y-121037547D01*
X163401894Y-120873666D01*
X163436500Y-120699691D01*
X163436500Y-120522309D01*
X163401894Y-120348334D01*
X163370828Y-120273334D01*
X163334016Y-120184459D01*
X163334009Y-120184446D01*
X163235464Y-120036965D01*
X163235461Y-120036961D01*
X163110038Y-119911538D01*
X163110034Y-119911535D01*
X162962553Y-119812990D01*
X162962540Y-119812983D01*
X162816048Y-119752305D01*
X162761644Y-119708464D01*
X162739579Y-119642170D01*
X162739500Y-119637744D01*
X162739500Y-116383987D01*
X162759185Y-116316948D01*
X162790612Y-116283670D01*
X162928446Y-116183528D01*
X163067628Y-116044346D01*
X163183324Y-115885105D01*
X163272684Y-115709725D01*
X163333509Y-115522526D01*
X163342051Y-115468594D01*
X163364300Y-115328122D01*
X163364300Y-115131277D01*
X163333509Y-114936873D01*
X163272682Y-114749670D01*
X163183323Y-114574294D01*
X163067628Y-114415054D01*
X162928446Y-114275872D01*
X162823698Y-114199768D01*
X162781035Y-114144440D01*
X162775056Y-114074827D01*
X162807662Y-114013032D01*
X162818733Y-114003822D01*
X162818327Y-114003328D01*
X162823031Y-113999466D01*
X162823035Y-113999464D01*
X162948464Y-113874035D01*
X163047013Y-113726547D01*
X163114894Y-113562666D01*
X163116800Y-113553088D01*
X163149499Y-113388695D01*
X163149500Y-113388693D01*
X163149500Y-113211307D01*
X163143101Y-113179143D01*
X163126436Y-113095360D01*
X163132663Y-113025772D01*
X163144952Y-113002279D01*
X163158311Y-112982286D01*
X163159926Y-112978388D01*
X163205463Y-112868452D01*
X163229500Y-112747606D01*
X163229500Y-92300944D01*
X163232314Y-92291357D01*
X163231042Y-92281446D01*
X163241995Y-92258387D01*
X163249185Y-92233905D01*
X163256734Y-92227363D01*
X163261023Y-92218336D01*
X163282704Y-92204860D01*
X163301989Y-92188150D01*
X163312373Y-92186419D01*
X163320365Y-92181453D01*
X163355372Y-92176958D01*
X163365867Y-92177116D01*
X163370309Y-92178000D01*
X163424398Y-92178000D01*
X163425325Y-92178014D01*
X163457866Y-92188104D01*
X163490492Y-92197685D01*
X163491128Y-92198419D01*
X163492059Y-92198708D01*
X163511143Y-92214327D01*
X163597744Y-92300944D01*
X165162957Y-93866453D01*
X165447190Y-94150739D01*
X165480669Y-94212065D01*
X165483500Y-94238412D01*
X165483500Y-113883972D01*
X165463815Y-113951011D01*
X165411011Y-113996766D01*
X165341853Y-114006710D01*
X165321182Y-114001903D01*
X165284829Y-113990091D01*
X165090422Y-113959300D01*
X165090417Y-113959300D01*
X164893583Y-113959300D01*
X164893578Y-113959300D01*
X164699173Y-113990090D01*
X164511970Y-114050917D01*
X164336594Y-114140276D01*
X164276757Y-114183751D01*
X164177354Y-114255972D01*
X164177352Y-114255974D01*
X164177351Y-114255974D01*
X164038174Y-114395151D01*
X164038174Y-114395152D01*
X164038172Y-114395154D01*
X164023714Y-114415054D01*
X163922476Y-114554394D01*
X163833117Y-114729770D01*
X163772290Y-114916973D01*
X163741500Y-115111377D01*
X163741500Y-115308222D01*
X163772290Y-115502626D01*
X163833117Y-115689829D01*
X163916816Y-115854097D01*
X163922476Y-115865205D01*
X164038172Y-116024446D01*
X164177354Y-116163628D01*
X164315387Y-116263915D01*
X164358051Y-116319244D01*
X164366500Y-116364232D01*
X164366500Y-119567715D01*
X164346815Y-119634754D01*
X164294011Y-119680509D01*
X164289952Y-119682276D01*
X164155459Y-119737983D01*
X164155446Y-119737990D01*
X164007965Y-119836535D01*
X164007961Y-119836538D01*
X163882538Y-119961961D01*
X163882535Y-119961965D01*
X163783990Y-120109446D01*
X163783983Y-120109459D01*
X163716106Y-120273332D01*
X163716103Y-120273341D01*
X163681500Y-120447304D01*
X163681500Y-120447309D01*
X163681500Y-120624691D01*
X163684265Y-120638595D01*
X163684266Y-120638602D01*
X163716103Y-120798658D01*
X163716106Y-120798667D01*
X163783983Y-120962540D01*
X163783990Y-120962553D01*
X163882535Y-121110034D01*
X163882538Y-121110038D01*
X164007961Y-121235461D01*
X164007965Y-121235464D01*
X164155446Y-121334009D01*
X164155459Y-121334016D01*
X164278363Y-121384923D01*
X164319334Y-121401894D01*
X164319336Y-121401894D01*
X164319341Y-121401896D01*
X164493304Y-121436499D01*
X164493307Y-121436500D01*
X164493309Y-121436500D01*
X164670693Y-121436500D01*
X164670694Y-121436499D01*
X164728682Y-121424964D01*
X164844658Y-121401896D01*
X164844661Y-121401894D01*
X164844666Y-121401894D01*
X165008547Y-121334013D01*
X165156035Y-121235464D01*
X165206465Y-121185034D01*
X165271819Y-121119681D01*
X165333142Y-121086196D01*
X165402834Y-121091180D01*
X165458767Y-121133052D01*
X165483184Y-121198516D01*
X165483500Y-121207362D01*
X165483500Y-122493355D01*
X165463815Y-122560394D01*
X165411011Y-122606149D01*
X165341853Y-122616093D01*
X165278297Y-122587068D01*
X165243318Y-122536688D01*
X165203754Y-122430613D01*
X165203750Y-122430606D01*
X165117590Y-122315512D01*
X165117587Y-122315509D01*
X165002493Y-122229349D01*
X165002486Y-122229345D01*
X164867779Y-122179103D01*
X164867772Y-122179101D01*
X164808244Y-122172700D01*
X163760400Y-122172700D01*
X163760400Y-125672700D01*
X163777835Y-125690135D01*
X163811320Y-125751458D01*
X163806336Y-125821150D01*
X163764464Y-125877083D01*
X163737607Y-125892377D01*
X163586455Y-125954985D01*
X163586446Y-125954990D01*
X163438965Y-126053535D01*
X163438961Y-126053538D01*
X163313538Y-126178961D01*
X163313535Y-126178965D01*
X163214990Y-126326446D01*
X163214983Y-126326459D01*
X163147106Y-126490332D01*
X163147103Y-126490341D01*
X163112500Y-126664304D01*
X163112500Y-126841695D01*
X163147103Y-127015658D01*
X163147106Y-127015667D01*
X163214983Y-127179540D01*
X163214990Y-127179553D01*
X163313535Y-127327034D01*
X163313538Y-127327038D01*
X163438961Y-127452461D01*
X163438965Y-127452464D01*
X163586446Y-127551009D01*
X163586459Y-127551016D01*
X163709363Y-127601923D01*
X163750334Y-127618894D01*
X163750336Y-127618894D01*
X163750341Y-127618896D01*
X163924304Y-127653499D01*
X163924307Y-127653500D01*
X163924309Y-127653500D01*
X164101693Y-127653500D01*
X164101694Y-127653499D01*
X164159682Y-127641964D01*
X164275658Y-127618896D01*
X164275661Y-127618894D01*
X164275666Y-127618894D01*
X164439547Y-127551013D01*
X164587035Y-127452464D01*
X164624679Y-127414820D01*
X164651609Y-127400114D01*
X164677426Y-127383523D01*
X164683624Y-127382631D01*
X164686001Y-127381334D01*
X164712361Y-127378500D01*
X164936548Y-127378500D01*
X165003587Y-127398185D01*
X165024228Y-127414818D01*
X165160493Y-127551084D01*
X165193978Y-127612406D01*
X165188994Y-127682098D01*
X165160533Y-127726405D01*
X165120833Y-127766141D01*
X165059525Y-127799654D01*
X165033112Y-127802500D01*
X164980306Y-127802500D01*
X164806341Y-127837103D01*
X164806332Y-127837106D01*
X164642459Y-127904983D01*
X164642446Y-127904990D01*
X164494965Y-128003535D01*
X164494961Y-128003538D01*
X164369538Y-128128961D01*
X164369535Y-128128965D01*
X164270990Y-128276446D01*
X164270983Y-128276459D01*
X164203106Y-128440332D01*
X164203103Y-128440341D01*
X164168500Y-128614304D01*
X164168500Y-128791695D01*
X164203103Y-128965658D01*
X164203106Y-128965667D01*
X164270983Y-129129540D01*
X164270990Y-129129553D01*
X164369535Y-129277034D01*
X164369538Y-129277038D01*
X164494961Y-129402461D01*
X164494965Y-129402464D01*
X164642446Y-129501009D01*
X164642459Y-129501016D01*
X164712183Y-129529896D01*
X164806334Y-129568894D01*
X164806336Y-129568894D01*
X164806341Y-129568896D01*
X164980304Y-129603499D01*
X164980307Y-129603500D01*
X164980309Y-129603500D01*
X165157693Y-129603500D01*
X165157694Y-129603499D01*
X165215682Y-129591964D01*
X165331658Y-129568896D01*
X165331661Y-129568894D01*
X165331666Y-129568894D01*
X165495547Y-129501013D01*
X165643035Y-129402464D01*
X165768464Y-129277035D01*
X165867013Y-129129547D01*
X165934894Y-128965666D01*
X165941899Y-128930453D01*
X165969499Y-128791695D01*
X165969500Y-128791693D01*
X165969500Y-128738017D01*
X165978137Y-128708600D01*
X165984642Y-128678638D01*
X165988418Y-128673588D01*
X165989185Y-128670978D01*
X166005775Y-128650378D01*
X166118513Y-128537541D01*
X166179822Y-128504030D01*
X166249516Y-128508984D01*
X166293914Y-128537504D01*
X167895287Y-130138877D01*
X167928772Y-130200200D01*
X167923788Y-130269892D01*
X167895287Y-130314239D01*
X167790074Y-130419451D01*
X167790074Y-130419452D01*
X167790072Y-130419454D01*
X167740385Y-130487841D01*
X167674376Y-130578694D01*
X167585017Y-130754070D01*
X167524190Y-130941273D01*
X167493400Y-131135677D01*
X167493400Y-131332522D01*
X167524190Y-131526926D01*
X167585017Y-131714129D01*
X167674376Y-131889505D01*
X167790072Y-132048746D01*
X167929254Y-132187928D01*
X168088495Y-132303624D01*
X168263875Y-132392984D01*
X168398116Y-132436601D01*
X168455791Y-132476039D01*
X168482989Y-132540397D01*
X168471074Y-132609243D01*
X168423830Y-132660719D01*
X168398116Y-132672463D01*
X168243560Y-132722682D01*
X168068263Y-132811999D01*
X168068259Y-132812002D01*
X168033273Y-132837420D01*
X168033272Y-132837420D01*
X168723400Y-133527546D01*
X168723401Y-133527546D01*
X169413525Y-132837420D01*
X169413525Y-132837419D01*
X169378545Y-132812005D01*
X169203237Y-132722681D01*
X169069183Y-132679124D01*
X169011508Y-132639686D01*
X168984310Y-132575327D01*
X168996225Y-132506481D01*
X169043470Y-132455005D01*
X169069178Y-132443264D01*
X169223925Y-132392984D01*
X169399305Y-132303624D01*
X169558546Y-132187928D01*
X169697728Y-132048746D01*
X169813424Y-131889505D01*
X169902784Y-131714125D01*
X169963609Y-131526926D01*
X169978174Y-131434967D01*
X169994400Y-131332522D01*
X169994400Y-131135677D01*
X169963609Y-130941273D01*
X169902782Y-130754070D01*
X169813423Y-130578694D01*
X169697728Y-130419454D01*
X169558546Y-130280272D01*
X169420613Y-130180057D01*
X169377949Y-130124727D01*
X169369500Y-130079740D01*
X169369500Y-130041393D01*
X169369499Y-130041389D01*
X169345463Y-129920548D01*
X169321822Y-129863474D01*
X169298312Y-129806714D01*
X169264084Y-129755490D01*
X169229858Y-129704267D01*
X169229856Y-129704264D01*
X169139630Y-129614038D01*
X169139606Y-129614016D01*
X166696198Y-127170608D01*
X166695105Y-127169473D01*
X166691682Y-127166053D01*
X166649217Y-127123626D01*
X166649177Y-127123586D01*
X166604733Y-127079141D01*
X166604538Y-127078981D01*
X166554641Y-127045671D01*
X166554641Y-127045670D01*
X166554596Y-127045641D01*
X166553505Y-127044912D01*
X166502285Y-127010686D01*
X166502053Y-127010563D01*
X166446328Y-126987510D01*
X166446330Y-126987503D01*
X166446279Y-126987489D01*
X166421792Y-126977347D01*
X166388452Y-126963537D01*
X166388450Y-126963536D01*
X166388444Y-126963534D01*
X166388204Y-126963461D01*
X166388187Y-126963457D01*
X166388186Y-126963457D01*
X166367545Y-126959360D01*
X166305621Y-126927002D01*
X166304005Y-126925414D01*
X166219271Y-126840680D01*
X166185786Y-126779357D01*
X166190770Y-126709665D01*
X166219271Y-126665318D01*
X166252448Y-126632141D01*
X166507729Y-126376860D01*
X166507733Y-126376858D01*
X166594858Y-126289733D01*
X166629084Y-126238509D01*
X166663312Y-126187286D01*
X166696652Y-126106792D01*
X166696653Y-126106791D01*
X166710460Y-126073460D01*
X166710460Y-126073458D01*
X166710463Y-126073452D01*
X166733368Y-125958296D01*
X166733368Y-125958295D01*
X166733371Y-125958295D01*
X166733371Y-125958280D01*
X166734500Y-125952607D01*
X166734500Y-125829393D01*
X166734500Y-124888500D01*
X166754185Y-124821461D01*
X166806989Y-124775706D01*
X166858500Y-124764500D01*
X166995693Y-124764500D01*
X166995694Y-124764499D01*
X167053682Y-124752964D01*
X167169658Y-124729896D01*
X167169661Y-124729894D01*
X167169666Y-124729894D01*
X167333547Y-124662013D01*
X167481035Y-124563464D01*
X167606464Y-124438035D01*
X167705013Y-124290547D01*
X167772894Y-124126666D01*
X167807500Y-123952691D01*
X167807500Y-123900219D01*
X167816156Y-123870739D01*
X167822713Y-123840709D01*
X167826429Y-123835752D01*
X167827185Y-123833180D01*
X167843886Y-123812471D01*
X167947003Y-123709512D01*
X167947796Y-123708795D01*
X167995196Y-123661394D01*
X167995267Y-123661323D01*
X168038548Y-123618110D01*
X168038557Y-123618095D01*
X168038678Y-123617950D01*
X168038848Y-123617742D01*
X168038858Y-123617733D01*
X168072947Y-123566714D01*
X168072956Y-123566720D01*
X168072999Y-123566634D01*
X168107082Y-123515715D01*
X168107176Y-123515487D01*
X168107311Y-123515286D01*
X168130861Y-123458430D01*
X168154321Y-123401917D01*
X168154322Y-123401908D01*
X168154458Y-123401463D01*
X168154463Y-123401452D01*
X168166514Y-123340863D01*
X168166514Y-123340862D01*
X168166533Y-123340865D01*
X168166533Y-123340767D01*
X168178452Y-123281091D01*
X168178452Y-123281075D01*
X168178498Y-123280613D01*
X168178500Y-123280606D01*
X168178500Y-123219484D01*
X168178548Y-123157878D01*
X168178500Y-123157635D01*
X168178500Y-119132394D01*
X168178500Y-116322869D01*
X168198185Y-116255830D01*
X168229612Y-116222552D01*
X168367146Y-116122628D01*
X168506328Y-115983446D01*
X168622024Y-115824205D01*
X168711384Y-115648825D01*
X168772209Y-115461626D01*
X168796506Y-115308222D01*
X168803000Y-115267222D01*
X168803000Y-115070377D01*
X168772209Y-114875973D01*
X168724550Y-114729295D01*
X168711384Y-114688775D01*
X168711382Y-114688772D01*
X168711382Y-114688770D01*
X168630688Y-114530400D01*
X168622024Y-114513395D01*
X168506328Y-114354154D01*
X168367146Y-114214972D01*
X168207905Y-114099276D01*
X168190204Y-114090257D01*
X168032529Y-114009917D01*
X167845326Y-113949090D01*
X167650922Y-113918300D01*
X167650917Y-113918300D01*
X167454083Y-113918300D01*
X167454078Y-113918300D01*
X167259673Y-113949090D01*
X167072467Y-114009918D01*
X166914794Y-114090257D01*
X166846125Y-114103153D01*
X166781385Y-114076876D01*
X166741128Y-114019770D01*
X166734500Y-113979772D01*
X166734500Y-93933660D01*
X166734506Y-93866453D01*
X166734500Y-93866422D01*
X166734500Y-93866394D01*
X166722201Y-93804561D01*
X166710480Y-93745606D01*
X166710476Y-93745585D01*
X166710470Y-93745564D01*
X166686946Y-93688776D01*
X166686940Y-93688761D01*
X166663400Y-93631912D01*
X166663345Y-93631777D01*
X166663341Y-93631770D01*
X166663340Y-93631767D01*
X166663337Y-93631762D01*
X166663313Y-93631719D01*
X166663311Y-93631714D01*
X166628717Y-93579940D01*
X166628715Y-93579933D01*
X166628713Y-93579934D01*
X166594895Y-93529313D01*
X166594891Y-93529309D01*
X166594887Y-93529303D01*
X166594852Y-93529260D01*
X166547255Y-93481664D01*
X166547248Y-93481652D01*
X166547246Y-93481655D01*
X164431175Y-91365184D01*
X164397697Y-91303859D01*
X164402688Y-91234167D01*
X164431176Y-91189840D01*
X166821656Y-88799034D01*
X166871068Y-88749623D01*
X166872725Y-88748035D01*
X166872879Y-88747804D01*
X166872884Y-88747800D01*
X166905299Y-88699280D01*
X166940701Y-88646298D01*
X166941302Y-88645419D01*
X166941330Y-88645349D01*
X166941332Y-88645348D01*
X166964599Y-88589162D01*
X166986825Y-88535507D01*
X166987948Y-88533046D01*
X166988441Y-88531604D01*
X166988463Y-88531552D01*
X166988466Y-88531532D01*
X166988470Y-88531518D01*
X166988475Y-88531510D01*
X166988476Y-88531500D01*
X166988591Y-88531167D01*
X166988969Y-88529022D01*
X166999426Y-88476435D01*
X166999426Y-88476433D01*
X166999427Y-88476433D01*
X166999427Y-88476429D01*
X167012500Y-88410706D01*
X167012500Y-88410696D01*
X167012502Y-88410673D01*
X167012504Y-88410664D01*
X167012500Y-88349057D01*
X167012500Y-80614661D01*
X167032185Y-80547622D01*
X167048820Y-80526979D01*
X167086461Y-80489338D01*
X167086464Y-80489335D01*
X167185013Y-80341847D01*
X167252894Y-80177966D01*
X167287500Y-80003991D01*
X167287500Y-79826609D01*
X167287500Y-79826606D01*
X167287499Y-79826604D01*
X167252896Y-79652641D01*
X167252893Y-79652632D01*
X167185016Y-79488759D01*
X167185009Y-79488746D01*
X167086464Y-79341265D01*
X167086461Y-79341261D01*
X166961038Y-79215838D01*
X166961034Y-79215835D01*
X166813553Y-79117290D01*
X166813540Y-79117283D01*
X166649667Y-79049406D01*
X166649658Y-79049403D01*
X166475694Y-79014800D01*
X166475691Y-79014800D01*
X166298309Y-79014800D01*
X166298306Y-79014800D01*
X166124341Y-79049403D01*
X166124332Y-79049406D01*
X165960459Y-79117283D01*
X165960446Y-79117290D01*
X165812965Y-79215835D01*
X165812961Y-79215838D01*
X165687538Y-79341261D01*
X165687535Y-79341265D01*
X165588990Y-79488746D01*
X165588983Y-79488759D01*
X165521106Y-79652632D01*
X165521103Y-79652641D01*
X165486500Y-79826604D01*
X165486500Y-80003995D01*
X165521103Y-80177958D01*
X165521106Y-80177967D01*
X165588983Y-80341840D01*
X165588990Y-80341853D01*
X165687535Y-80489334D01*
X165687538Y-80489338D01*
X165725180Y-80526979D01*
X165758666Y-80588301D01*
X165761500Y-80614661D01*
X165761500Y-88038675D01*
X165741815Y-88105714D01*
X165725187Y-88126350D01*
X163511166Y-90340675D01*
X163485022Y-90354952D01*
X163460203Y-90371437D01*
X163452779Y-90372561D01*
X163449845Y-90374164D01*
X163425348Y-90376986D01*
X163424419Y-90377000D01*
X163370309Y-90377000D01*
X163365871Y-90377882D01*
X163355369Y-90378041D01*
X163326468Y-90370026D01*
X163297003Y-90364436D01*
X163293153Y-90360786D01*
X163288041Y-90359369D01*
X163268060Y-90337000D01*
X163246295Y-90316369D01*
X163244853Y-90311020D01*
X163241495Y-90307261D01*
X163238110Y-90286003D01*
X163229500Y-90254055D01*
X163229500Y-89453761D01*
X163249185Y-89386722D01*
X163265820Y-89366079D01*
X163303461Y-89328438D01*
X163303464Y-89328435D01*
X163402013Y-89180947D01*
X163469894Y-89017066D01*
X163504500Y-88843091D01*
X163504500Y-88665709D01*
X163504500Y-88665706D01*
X163504499Y-88665704D01*
X163469896Y-88491741D01*
X163469893Y-88491732D01*
X163402016Y-88327859D01*
X163402009Y-88327846D01*
X163303464Y-88180365D01*
X163303461Y-88180361D01*
X163178038Y-88054938D01*
X163178034Y-88054935D01*
X163030553Y-87956390D01*
X163030540Y-87956383D01*
X162866667Y-87888506D01*
X162866658Y-87888503D01*
X162692694Y-87853900D01*
X162692691Y-87853900D01*
X162515309Y-87853900D01*
X162515306Y-87853900D01*
X162341341Y-87888503D01*
X162341332Y-87888506D01*
X162177459Y-87956383D01*
X162177446Y-87956390D01*
X162029965Y-88054935D01*
X162029961Y-88054938D01*
X161904538Y-88180361D01*
X161904535Y-88180365D01*
X161805990Y-88327846D01*
X161805983Y-88327859D01*
X161738106Y-88491732D01*
X161738103Y-88491741D01*
X161703500Y-88665704D01*
X161703500Y-88843095D01*
X161738103Y-89017058D01*
X161738106Y-89017067D01*
X161805983Y-89180940D01*
X161805990Y-89180953D01*
X161904535Y-89328434D01*
X161904538Y-89328438D01*
X161942180Y-89366079D01*
X161975666Y-89427401D01*
X161978500Y-89453761D01*
X161978500Y-112302768D01*
X161958815Y-112369807D01*
X161906011Y-112415562D01*
X161878692Y-112424385D01*
X161807553Y-112438535D01*
X161807538Y-112438540D01*
X161693718Y-112485685D01*
X161693709Y-112485690D01*
X161591272Y-112554139D01*
X161591264Y-112554145D01*
X161504145Y-112641264D01*
X161504139Y-112641272D01*
X161435690Y-112743709D01*
X161435685Y-112743718D01*
X161388540Y-112857538D01*
X161388535Y-112857555D01*
X161364500Y-112978388D01*
X161364500Y-113101613D01*
X161364625Y-113102884D01*
X161364500Y-113105426D01*
X161364500Y-113107698D01*
X161364388Y-113107698D01*
X161362839Y-113139215D01*
X161348500Y-113211308D01*
X161348500Y-113388695D01*
X161383103Y-113562658D01*
X161383106Y-113562667D01*
X161450983Y-113726540D01*
X161450990Y-113726553D01*
X161549535Y-113874034D01*
X161549538Y-113874038D01*
X161587645Y-113912145D01*
X161621130Y-113973468D01*
X161616146Y-114043160D01*
X161574274Y-114099093D01*
X161556260Y-114110310D01*
X161458397Y-114160174D01*
X161403899Y-114199770D01*
X161299154Y-114275872D01*
X161299152Y-114275874D01*
X161299151Y-114275874D01*
X161159974Y-114415051D01*
X161159974Y-114415052D01*
X161159972Y-114415054D01*
X161110285Y-114483441D01*
X161044276Y-114574294D01*
X160954918Y-114749669D01*
X160923951Y-114844974D01*
X160884512Y-114902649D01*
X160820153Y-114929846D01*
X160751307Y-114917931D01*
X160699832Y-114870686D01*
X160688089Y-114844972D01*
X160640684Y-114699075D01*
X160551324Y-114523695D01*
X160435628Y-114364454D01*
X160296446Y-114225272D01*
X160137205Y-114109576D01*
X160114511Y-114098013D01*
X159961829Y-114020217D01*
X159774626Y-113959390D01*
X159580222Y-113928600D01*
X159580217Y-113928600D01*
X159383383Y-113928600D01*
X159383378Y-113928600D01*
X159188973Y-113959390D01*
X159001770Y-114020217D01*
X158826394Y-114109576D01*
X158784140Y-114140276D01*
X158667154Y-114225272D01*
X158667152Y-114225274D01*
X158667151Y-114225274D01*
X158527974Y-114364451D01*
X158527974Y-114364452D01*
X158527972Y-114364454D01*
X158505667Y-114395154D01*
X158412276Y-114523694D01*
X158322917Y-114699070D01*
X158262090Y-114886273D01*
X158231300Y-115080677D01*
X142192155Y-115080677D01*
X142135390Y-114893547D01*
X141984971Y-114530403D01*
X141912677Y-114395151D01*
X141799688Y-114183762D01*
X141799687Y-114183760D01*
X141799682Y-114183751D01*
X141581307Y-113856931D01*
X141331950Y-113553088D01*
X141331949Y-113553087D01*
X141331945Y-113553082D01*
X141054017Y-113275154D01*
X140750174Y-113025797D01*
X140750173Y-113025796D01*
X140750169Y-113025793D01*
X140423349Y-112807418D01*
X140423344Y-112807415D01*
X140423337Y-112807411D01*
X140076704Y-112622132D01*
X140076699Y-112622130D01*
X139713554Y-112471710D01*
X139337405Y-112357607D01*
X139337394Y-112357604D01*
X138951902Y-112280926D01*
X138657289Y-112251910D01*
X138560732Y-112242400D01*
X138167668Y-112242400D01*
X138078451Y-112251187D01*
X137776497Y-112280926D01*
X137391005Y-112357604D01*
X137390994Y-112357607D01*
X137014845Y-112471710D01*
X136651700Y-112622130D01*
X136651695Y-112622132D01*
X136305062Y-112807411D01*
X136305044Y-112807422D01*
X135978239Y-113025787D01*
X135978225Y-113025797D01*
X135674382Y-113275154D01*
X135396454Y-113553082D01*
X135147097Y-113856925D01*
X135147087Y-113856939D01*
X134928722Y-114183744D01*
X134928711Y-114183762D01*
X134743432Y-114530395D01*
X134743430Y-114530400D01*
X134593010Y-114893545D01*
X134478907Y-115269694D01*
X134478904Y-115269705D01*
X134429578Y-115517691D01*
X134397193Y-115579602D01*
X134336478Y-115614176D01*
X134307961Y-115617500D01*
X114675452Y-115617500D01*
X114608413Y-115597815D01*
X114587771Y-115581181D01*
X106160570Y-107153980D01*
X106127085Y-107092657D01*
X106132069Y-107022965D01*
X106173941Y-106967032D01*
X106239405Y-106942615D01*
X106248251Y-106942299D01*
X106536671Y-106942299D01*
X106536672Y-106942299D01*
X106596283Y-106935891D01*
X106731131Y-106885596D01*
X106846346Y-106799346D01*
X106932596Y-106684131D01*
X106982891Y-106549283D01*
X106989300Y-106489673D01*
X106989299Y-104643928D01*
X106982891Y-104584317D01*
X106981218Y-104579831D01*
X106976235Y-104510139D01*
X107009722Y-104448817D01*
X107071045Y-104415333D01*
X107097401Y-104412500D01*
X134939700Y-104412500D01*
X135006739Y-104432185D01*
X135052494Y-104484989D01*
X135063700Y-104536500D01*
X135063700Y-106290770D01*
X135063701Y-106290776D01*
X135070108Y-106350383D01*
X135120402Y-106485228D01*
X135120406Y-106485235D01*
X135206652Y-106600444D01*
X135206655Y-106600447D01*
X135321864Y-106686693D01*
X135321871Y-106686697D01*
X135456717Y-106736991D01*
X135456716Y-106736991D01*
X135463644Y-106737735D01*
X135516327Y-106743400D01*
X141212072Y-106743399D01*
X141271683Y-106736991D01*
X141406531Y-106686696D01*
X141521746Y-106600446D01*
X141607996Y-106485231D01*
X141658291Y-106350383D01*
X141664700Y-106290773D01*
X141664699Y-104445028D01*
X141658291Y-104385417D01*
X141607996Y-104250569D01*
X141607995Y-104250568D01*
X141607993Y-104250564D01*
X141521747Y-104135355D01*
X141521744Y-104135352D01*
X141406535Y-104049106D01*
X141406528Y-104049102D01*
X141271682Y-103998808D01*
X141271683Y-103998808D01*
X141212083Y-103992401D01*
X141212081Y-103992400D01*
X141212073Y-103992400D01*
X141212065Y-103992400D01*
X137924581Y-103992400D01*
X137857542Y-103972715D01*
X137836844Y-103956026D01*
X137274470Y-103392940D01*
X137274470Y-103392939D01*
X137269964Y-103388428D01*
X137269858Y-103388267D01*
X137226460Y-103344869D01*
X137226458Y-103344866D01*
X137183038Y-103301391D01*
X137182947Y-103301317D01*
X137182841Y-103301230D01*
X137182732Y-103301140D01*
X137131655Y-103267012D01*
X137131615Y-103266986D01*
X137116864Y-103257116D01*
X137082216Y-103233932D01*
X137082211Y-103233929D01*
X137080636Y-103232876D01*
X137080450Y-103232799D01*
X137080286Y-103232689D01*
X137023310Y-103209088D01*
X137022929Y-103208930D01*
X137022832Y-103208889D01*
X136966822Y-103185647D01*
X136966699Y-103185610D01*
X136966699Y-103185611D01*
X136966459Y-103185538D01*
X136947853Y-103181837D01*
X136906001Y-103173512D01*
X136905931Y-103173476D01*
X136905927Y-103173497D01*
X136893968Y-103171111D01*
X136846001Y-103161538D01*
X136845619Y-103161500D01*
X136845606Y-103161500D01*
X136784396Y-103161500D01*
X136784305Y-103161499D01*
X136717219Y-103161457D01*
X136716344Y-103161500D01*
X99931259Y-103161500D01*
X99931204Y-103161489D01*
X99866664Y-103161500D01*
X99808078Y-103161500D01*
X99808002Y-103161508D01*
X99807992Y-103161509D01*
X99807991Y-103161510D01*
X99778531Y-103167374D01*
X99747626Y-103173527D01*
X99747609Y-103173530D01*
X99687244Y-103185537D01*
X99687153Y-103185565D01*
X99629518Y-103209447D01*
X99629519Y-103209448D01*
X99629454Y-103209475D01*
X99573414Y-103232689D01*
X99573373Y-103232716D01*
X99573323Y-103232737D01*
X99573221Y-103232804D01*
X99573216Y-103232807D01*
X99521728Y-103267222D01*
X99521582Y-103267321D01*
X99521413Y-103267433D01*
X99521354Y-103267473D01*
X99521186Y-103267585D01*
X99470967Y-103301142D01*
X99470929Y-103301179D01*
X99470887Y-103301208D01*
X99470607Y-103301487D01*
X99470604Y-103301490D01*
X99428370Y-103343737D01*
X99379847Y-103392260D01*
X99379679Y-103392444D01*
X96695229Y-106077779D01*
X96695228Y-106077778D01*
X96694465Y-106078542D01*
X96649742Y-106123267D01*
X96649711Y-106123312D01*
X96649677Y-106123347D01*
X96649469Y-106123657D01*
X96649468Y-106123659D01*
X96616789Y-106172584D01*
X96616779Y-106172598D01*
X96581281Y-106225725D01*
X96581246Y-106225789D01*
X96558238Y-106281360D01*
X96558232Y-106281374D01*
X96534134Y-106339555D01*
X96534110Y-106339631D01*
X96522206Y-106399526D01*
X96522203Y-106399541D01*
X96510098Y-106460404D01*
X96510093Y-106460449D01*
X96510089Y-106460487D01*
X96510100Y-106522103D01*
X96510100Y-118229500D01*
X96490415Y-118296539D01*
X96437611Y-118342294D01*
X96386100Y-118353500D01*
X93282454Y-118353500D01*
X93200312Y-118353498D01*
X93200302Y-118353500D01*
X93200294Y-118353500D01*
X93197538Y-118354047D01*
X93197538Y-118354048D01*
X93136654Y-118366158D01*
X93136653Y-118366158D01*
X93079455Y-118377534D01*
X93079454Y-118377534D01*
X93079444Y-118377538D01*
X93033212Y-118396688D01*
X93016132Y-118403763D01*
X92965631Y-118424680D01*
X92965623Y-118424685D01*
X92965614Y-118424689D01*
X92965112Y-118425024D01*
X92965108Y-118425026D01*
X92905706Y-118464716D01*
X92905485Y-118464865D01*
X92905278Y-118465004D01*
X92863181Y-118493131D01*
X92863176Y-118493135D01*
X92863167Y-118493142D01*
X92861967Y-118494341D01*
X92861961Y-118494346D01*
X92811285Y-118545022D01*
X92811284Y-118545024D01*
X82935554Y-128420184D01*
X82874230Y-128453667D01*
X82847875Y-128456500D01*
X82794606Y-128456500D01*
X82620641Y-128491103D01*
X82620632Y-128491106D01*
X82456759Y-128558983D01*
X82456746Y-128558990D01*
X82309265Y-128657535D01*
X82309261Y-128657538D01*
X82183838Y-128782961D01*
X82183835Y-128782965D01*
X82085290Y-128930446D01*
X82085283Y-128930459D01*
X82017406Y-129094332D01*
X82017403Y-129094341D01*
X81982800Y-129268304D01*
X79536544Y-129268304D01*
X79556411Y-129260075D01*
X79671142Y-129183414D01*
X79671145Y-129183411D01*
X79680021Y-129174536D01*
X79768711Y-129085845D01*
X79768714Y-129085842D01*
X79845375Y-128971111D01*
X79898180Y-128843628D01*
X79916269Y-128752691D01*
X79925100Y-128708295D01*
X79925100Y-128570304D01*
X79898181Y-128434977D01*
X79898180Y-128434976D01*
X79898180Y-128434972D01*
X79863169Y-128350447D01*
X79845378Y-128307495D01*
X79845371Y-128307482D01*
X79768714Y-128192758D01*
X79768711Y-128192754D01*
X79671145Y-128095188D01*
X79671141Y-128095185D01*
X79556417Y-128018528D01*
X79556404Y-128018521D01*
X79428932Y-127965721D01*
X79428922Y-127965718D01*
X79293595Y-127938800D01*
X79293593Y-127938800D01*
X79155607Y-127938800D01*
X79155605Y-127938800D01*
X79020277Y-127965718D01*
X79020267Y-127965721D01*
X78892795Y-128018521D01*
X78892782Y-128018528D01*
X78778058Y-128095185D01*
X78778054Y-128095188D01*
X78680488Y-128192754D01*
X78680485Y-128192758D01*
X78603828Y-128307482D01*
X78603821Y-128307495D01*
X78551021Y-128434967D01*
X78551018Y-128434977D01*
X78524100Y-128570304D01*
X78524100Y-128570307D01*
X78524100Y-128708293D01*
X78524100Y-128708295D01*
X78524099Y-128708295D01*
X73202779Y-128708295D01*
X73202779Y-87401404D01*
X153461500Y-87401404D01*
X153461500Y-87578795D01*
X153496103Y-87752758D01*
X153496106Y-87752767D01*
X153563983Y-87916640D01*
X153563990Y-87916653D01*
X153662535Y-88064134D01*
X153662538Y-88064138D01*
X153700180Y-88101779D01*
X153733666Y-88163101D01*
X153736500Y-88189461D01*
X153736500Y-98552329D01*
X153716815Y-98619368D01*
X153715602Y-98621220D01*
X153688988Y-98661049D01*
X153688987Y-98661052D01*
X153621106Y-98824932D01*
X153621103Y-98824941D01*
X153586500Y-98998904D01*
X153586500Y-99176295D01*
X153621103Y-99350258D01*
X153621106Y-99350267D01*
X153688983Y-99514140D01*
X153688990Y-99514153D01*
X153787535Y-99661634D01*
X153787538Y-99661638D01*
X153912961Y-99787061D01*
X153912965Y-99787064D01*
X154060446Y-99885609D01*
X154060459Y-99885616D01*
X154183363Y-99936523D01*
X154224334Y-99953494D01*
X154224336Y-99953494D01*
X154224341Y-99953496D01*
X154398304Y-99988099D01*
X154398307Y-99988100D01*
X154398309Y-99988100D01*
X154575693Y-99988100D01*
X154575694Y-99988099D01*
X154633682Y-99976564D01*
X154749658Y-99953496D01*
X154749661Y-99953494D01*
X154749666Y-99953494D01*
X154913547Y-99885613D01*
X155061035Y-99787064D01*
X155186464Y-99661635D01*
X155285013Y-99514147D01*
X155352894Y-99350266D01*
X155387500Y-99176291D01*
X155387500Y-98998909D01*
X155387500Y-98998906D01*
X155387499Y-98998904D01*
X155352896Y-98824941D01*
X155352893Y-98824932D01*
X155285016Y-98661059D01*
X155285009Y-98661046D01*
X155186464Y-98513565D01*
X155186461Y-98513561D01*
X155061036Y-98388136D01*
X155042607Y-98375822D01*
X154997803Y-98322208D01*
X154987500Y-98272721D01*
X154987500Y-88189461D01*
X155007185Y-88122422D01*
X155023820Y-88101779D01*
X155061461Y-88064138D01*
X155061464Y-88064135D01*
X155160013Y-87916647D01*
X155227894Y-87752766D01*
X155262500Y-87578791D01*
X155262500Y-87401409D01*
X155262500Y-87401406D01*
X155262499Y-87401404D01*
X155227896Y-87227441D01*
X155227893Y-87227432D01*
X155160016Y-87063559D01*
X155160009Y-87063546D01*
X155061464Y-86916065D01*
X155061461Y-86916061D01*
X154936038Y-86790638D01*
X154936034Y-86790635D01*
X154788553Y-86692090D01*
X154788540Y-86692083D01*
X154624667Y-86624206D01*
X154624658Y-86624203D01*
X154450694Y-86589600D01*
X154450691Y-86589600D01*
X154273309Y-86589600D01*
X154273306Y-86589600D01*
X154099341Y-86624203D01*
X154099332Y-86624206D01*
X153935459Y-86692083D01*
X153935446Y-86692090D01*
X153787965Y-86790635D01*
X153787961Y-86790638D01*
X153662538Y-86916061D01*
X153662535Y-86916065D01*
X153563990Y-87063546D01*
X153563983Y-87063559D01*
X153496106Y-87227432D01*
X153496103Y-87227441D01*
X153461500Y-87401404D01*
X73202779Y-87401404D01*
X73202779Y-75550715D01*
X73202885Y-75545591D01*
X73218112Y-75177429D01*
X73218476Y-75171767D01*
X73225739Y-75088752D01*
X73226209Y-75084319D01*
X73266543Y-74760751D01*
X73267472Y-74754580D01*
X73281167Y-74676915D01*
X73281887Y-74673182D01*
X73349902Y-74348802D01*
X73351461Y-74342272D01*
X73369730Y-74274096D01*
X73370609Y-74270986D01*
X73467722Y-73944788D01*
X73470041Y-73937773D01*
X73489422Y-73884526D01*
X73490353Y-73882056D01*
X73619324Y-73551533D01*
X73622421Y-73544294D01*
X73636592Y-73513903D01*
X73637526Y-73511948D01*
X73803098Y-73173267D01*
X73807971Y-73164261D01*
X73914002Y-72986318D01*
X74014254Y-72818074D01*
X74019837Y-72809528D01*
X74254009Y-72481552D01*
X74260277Y-72473499D01*
X74520724Y-72165989D01*
X74527643Y-72158473D01*
X74812597Y-71873520D01*
X74820113Y-71866601D01*
X75127622Y-71606154D01*
X75135686Y-71599877D01*
X75463641Y-71365723D01*
X75472213Y-71360121D01*
X75818391Y-71153846D01*
X75827374Y-71148984D01*
X76165695Y-70983589D01*
X76167447Y-70982752D01*
X76198569Y-70968239D01*
X76205808Y-70965143D01*
X76535739Y-70836404D01*
X76538179Y-70835484D01*
X76592129Y-70815847D01*
X76599061Y-70813557D01*
X76924615Y-70716634D01*
X76927691Y-70715765D01*
X76996635Y-70697291D01*
X77003239Y-70695715D01*
X77326786Y-70627875D01*
X77330530Y-70627153D01*
X77409083Y-70613302D01*
X77415187Y-70612383D01*
X77737976Y-70572147D01*
X77742381Y-70571681D01*
X77826310Y-70564338D01*
X77831905Y-70563977D01*
X78199843Y-70548759D01*
X78204955Y-70548654D01*
X167006461Y-70548654D01*
X167011588Y-70548760D01*
G37*
%TD.AperFunction*%
%TD*%
M02*
