%TF.GenerationSoftware,KiCad,Pcbnew,9.0.7-9.0.7~ubuntu24.04.1*%
%TF.CreationDate,2026-02-10T19:55:17+01:00*%
%TF.ProjectId,RamadanCard,52616d61-6461-46e4-9361-72642e6b6963,rev?*%
%TF.SameCoordinates,Original*%
%TF.FileFunction,Copper,L1,Top*%
%TF.FilePolarity,Positive*%
%FSLAX46Y46*%
G04 Gerber Fmt 4.6, Leading zero omitted, Abs format (unit mm)*
G04 Created by KiCad (PCBNEW 9.0.7-9.0.7~ubuntu24.04.1) date 2026-02-10 19:55:17*
%MOMM*%
%LPD*%
G01*
G04 APERTURE LIST*
G04 Aperture macros list*
%AMRoundRect*
0 Rectangle with rounded corners*
0 $1 Rounding radius*
0 $2 $3 $4 $5 $6 $7 $8 $9 X,Y pos of 4 corners*
0 Add a 4 corners polygon primitive as box body*
4,1,4,$2,$3,$4,$5,$6,$7,$8,$9,$2,$3,0*
0 Add four circle primitives for the rounded corners*
1,1,$1+$1,$2,$3*
1,1,$1+$1,$4,$5*
1,1,$1+$1,$6,$7*
1,1,$1+$1,$8,$9*
0 Add four rect primitives between the rounded corners*
20,1,$1+$1,$2,$3,$4,$5,0*
20,1,$1+$1,$4,$5,$6,$7,0*
20,1,$1+$1,$6,$7,$8,$9,0*
20,1,$1+$1,$8,$9,$2,$3,0*%
%AMFreePoly0*
4,1,9,3.862500,-0.866500,0.737500,-0.866500,0.737500,-0.450000,-0.737500,-0.450000,-0.737500,0.450000,0.737500,0.450000,0.737500,0.866500,3.862500,0.866500,3.862500,-0.866500,3.862500,-0.866500,$1*%
G04 Aperture macros list end*
%TA.AperFunction,SMDPad,CuDef*%
%ADD10RoundRect,0.125000X0.125000X-0.125000X0.125000X0.125000X-0.125000X0.125000X-0.125000X-0.125000X0*%
%TD*%
%TA.AperFunction,SMDPad,CuDef*%
%ADD11RoundRect,0.200000X0.200000X0.275000X-0.200000X0.275000X-0.200000X-0.275000X0.200000X-0.275000X0*%
%TD*%
%TA.AperFunction,SMDPad,CuDef*%
%ADD12R,0.900000X1.300000*%
%TD*%
%TA.AperFunction,SMDPad,CuDef*%
%ADD13FreePoly0,270.000000*%
%TD*%
%TA.AperFunction,SMDPad,CuDef*%
%ADD14R,1.200000X0.900000*%
%TD*%
%TA.AperFunction,SMDPad,CuDef*%
%ADD15R,0.900000X0.800000*%
%TD*%
%TA.AperFunction,SMDPad,CuDef*%
%ADD16RoundRect,0.062500X-0.350000X-0.062500X0.350000X-0.062500X0.350000X0.062500X-0.350000X0.062500X0*%
%TD*%
%TA.AperFunction,SMDPad,CuDef*%
%ADD17RoundRect,0.062500X-0.062500X-0.350000X0.062500X-0.350000X0.062500X0.350000X-0.062500X0.350000X0*%
%TD*%
%TA.AperFunction,ComponentPad*%
%ADD18C,0.500000*%
%TD*%
%TA.AperFunction,SMDPad,CuDef*%
%ADD19R,2.500000X2.500000*%
%TD*%
%TA.AperFunction,SMDPad,CuDef*%
%ADD20R,1.000000X0.750000*%
%TD*%
%TA.AperFunction,ViaPad*%
%ADD21C,0.800000*%
%TD*%
%TA.AperFunction,Conductor*%
%ADD22C,0.250000*%
%TD*%
G04 APERTURE END LIST*
D10*
%TO.P,D2,1,DIN*%
%TO.N,Net-(D1-DOUT)*%
X164404300Y-77710200D03*
%TO.P,D2,2,VDD*%
%TO.N,+6V*%
X165304300Y-77710200D03*
%TO.P,D2,3,DOUT*%
%TO.N,Net-(D2-DOUT)*%
X165304300Y-76810200D03*
%TO.P,D2,4,GND*%
%TO.N,GND*%
X164404300Y-76810200D03*
%TD*%
%TO.P,D7,1,DIN*%
%TO.N,Net-(D6-DOUT)*%
X144345500Y-80967300D03*
%TO.P,D7,2,VDD*%
%TO.N,+6V*%
X145245500Y-80967300D03*
%TO.P,D7,3,DOUT*%
%TO.N,Net-(D7-DOUT)*%
X145245500Y-80067300D03*
%TO.P,D7,4,GND*%
%TO.N,GND*%
X144345500Y-80067300D03*
%TD*%
%TO.P,D6,1,DIN*%
%TO.N,Net-(D5-DOUT)*%
X134100000Y-91400000D03*
%TO.P,D6,2,VDD*%
%TO.N,+6V*%
X135000000Y-91400000D03*
%TO.P,D6,3,DOUT*%
%TO.N,Net-(D6-DOUT)*%
X135000000Y-90500000D03*
%TO.P,D6,4,GND*%
%TO.N,GND*%
X134100000Y-90500000D03*
%TD*%
D11*
%TO.P,R1,1*%
%TO.N,Net-(U1-AREF{slash}PA0)*%
X164269700Y-117873200D03*
%TO.P,R1,2*%
%TO.N,Net-(D1-DIN)*%
X162619700Y-117873200D03*
%TD*%
D12*
%TO.P,U2,1,OUT*%
%TO.N,+6V*%
X165054200Y-130104500D03*
D13*
%TO.P,U2,2,GND*%
%TO.N,GND*%
X163554200Y-130192000D03*
D12*
%TO.P,U2,3,IN*%
%TO.N,Net-(U2-IN)*%
X162054200Y-130104500D03*
%TD*%
D14*
%TO.P,J1,1,NO*%
%TO.N,GND*%
X81374600Y-127889300D03*
%TO.P,J1,2,COM*%
%TO.N,Net-(J1-COM)*%
X81357202Y-130844138D03*
%TO.P,J1,3,NC*%
%TO.N,unconnected-(J1-NC-Pad3)*%
X81374600Y-132389300D03*
D15*
%TO.P,J1,MP1,MP1*%
%TO.N,unconnected-(J1-PadMP1)*%
X80324600Y-126339300D03*
%TO.P,J1,MP2,MP2*%
%TO.N,unconnected-(J1-PadMP2)*%
X80324600Y-133939300D03*
%TO.P,J1,MP3,MP3*%
%TO.N,unconnected-(J1-PadMP3)*%
X78124600Y-133939300D03*
%TO.P,J1,MP4,MP4*%
%TO.N,unconnected-(J1-PadMP4)*%
X78124600Y-126339300D03*
%TD*%
D10*
%TO.P,D11,1,DIN*%
%TO.N,Net-(D10-DOUT)*%
X91611500Y-75541000D03*
%TO.P,D11,2,VDD*%
%TO.N,+6V*%
X92511500Y-75541000D03*
%TO.P,D11,3,DOUT*%
%TO.N,Net-(D11-DOUT)*%
X92511500Y-74641000D03*
%TO.P,D11,4,GND*%
%TO.N,GND*%
X91611500Y-74641000D03*
%TD*%
%TO.P,D16,1,DIN*%
%TO.N,Net-(D15-DOUT)*%
X79710800Y-89835500D03*
%TO.P,D16,2,VDD*%
%TO.N,+6V*%
X80610800Y-89835500D03*
%TO.P,D16,3,DOUT*%
%TO.N,unconnected-(D16-DOUT-Pad3)*%
X80610800Y-88935500D03*
%TO.P,D16,4,GND*%
%TO.N,GND*%
X79710800Y-88935500D03*
%TD*%
%TO.P,D10,1,DIN*%
%TO.N,Net-(D10-DIN)*%
X115749900Y-78412400D03*
%TO.P,D10,2,VDD*%
%TO.N,+6V*%
X116649900Y-78412400D03*
%TO.P,D10,3,DOUT*%
%TO.N,Net-(D10-DOUT)*%
X116649900Y-77512400D03*
%TO.P,D10,4,GND*%
%TO.N,GND*%
X115749900Y-77512400D03*
%TD*%
%TO.P,D15,1,DIN*%
%TO.N,Net-(D14-DOUT)*%
X81600000Y-102900000D03*
%TO.P,D15,2,VDD*%
%TO.N,+6V*%
X82500000Y-102900000D03*
%TO.P,D15,3,DOUT*%
%TO.N,Net-(D15-DOUT)*%
X82500000Y-102000000D03*
%TO.P,D15,4,GND*%
%TO.N,GND*%
X81600000Y-102000000D03*
%TD*%
%TO.P,D8,1,DIN*%
%TO.N,Net-(D7-DOUT)*%
X131100000Y-76400000D03*
%TO.P,D8,2,VDD*%
%TO.N,+6V*%
X132000000Y-76400000D03*
%TO.P,D8,3,DOUT*%
%TO.N,Net-(D8-DOUT)*%
X132000000Y-75500000D03*
%TO.P,D8,4,GND*%
%TO.N,GND*%
X131100000Y-75500000D03*
%TD*%
D16*
%TO.P,U1,1,PA4*%
%TO.N,Net-(U1-PA4)*%
X161572900Y-122922700D03*
%TO.P,U1,2,PA3*%
%TO.N,unconnected-(U1-PA3-Pad2)*%
X161572900Y-123422700D03*
%TO.P,U1,3,PA2*%
%TO.N,unconnected-(U1-PA2-Pad3)*%
X161572900Y-123922700D03*
%TO.P,U1,4,PA1*%
%TO.N,Net-(S1-NO_1)*%
X161572900Y-124422700D03*
%TO.P,U1,5,AREF/PA0*%
%TO.N,Net-(U1-AREF{slash}PA0)*%
X161572900Y-124922700D03*
D17*
%TO.P,U1,6,NC*%
%TO.N,unconnected-(U1-NC-Pad6)*%
X162510400Y-125860200D03*
%TO.P,U1,7,NC*%
%TO.N,unconnected-(U1-NC-Pad7)*%
X163010400Y-125860200D03*
%TO.P,U1,8,GND*%
%TO.N,GND*%
X163510400Y-125860200D03*
%TO.P,U1,9,VCC*%
%TO.N,+6V*%
X164010400Y-125860200D03*
%TO.P,U1,10,NC*%
%TO.N,unconnected-(U1-NC-Pad10)*%
X164510400Y-125860200D03*
D16*
%TO.P,U1,11,XTAL1/PB0*%
%TO.N,unconnected-(U1-XTAL1{slash}PB0-Pad11)*%
X165447900Y-124922700D03*
%TO.P,U1,12,XTAL2/PB1*%
%TO.N,unconnected-(U1-XTAL2{slash}PB1-Pad12)*%
X165447900Y-124422700D03*
%TO.P,U1,13,~{RESET}/PB3*%
%TO.N,Net-(U1-~{RESET}{slash}PB3)*%
X165447900Y-123922700D03*
%TO.P,U1,14,PB2*%
%TO.N,unconnected-(U1-PB2-Pad14)*%
X165447900Y-123422700D03*
%TO.P,U1,15,PA7*%
%TO.N,unconnected-(U1-PA7-Pad15)*%
X165447900Y-122922700D03*
D17*
%TO.P,U1,16,PA6*%
%TO.N,Net-(U1-PA6)*%
X164510400Y-121985200D03*
%TO.P,U1,17,NC*%
%TO.N,unconnected-(U1-NC-Pad17)*%
X164010400Y-121985200D03*
%TO.P,U1,18,NC*%
%TO.N,unconnected-(U1-NC-Pad18)*%
X163510400Y-121985200D03*
%TO.P,U1,19,NC*%
%TO.N,unconnected-(U1-NC-Pad19)*%
X163010400Y-121985200D03*
%TO.P,U1,20,PA5*%
%TO.N,Net-(U1-PA5)*%
X162510400Y-121985200D03*
D18*
%TO.P,U1,21,GND*%
%TO.N,GND*%
X162510400Y-122922700D03*
X162510400Y-124922700D03*
D19*
X163510400Y-123922700D03*
D18*
X164510400Y-122922700D03*
X164510400Y-124922700D03*
%TD*%
D10*
%TO.P,D4,1,DIN*%
%TO.N,Net-(D3-DOUT)*%
X151305000Y-86926000D03*
%TO.P,D4,2,VDD*%
%TO.N,+6V*%
X152205000Y-86926000D03*
%TO.P,D4,3,DOUT*%
%TO.N,Net-(D4-DOUT)*%
X152205000Y-86026000D03*
%TO.P,D4,4,GND*%
%TO.N,GND*%
X151305000Y-86026000D03*
%TD*%
%TO.P,D12,1,DIN*%
%TO.N,Net-(D11-DOUT)*%
X81000000Y-76400000D03*
%TO.P,D12,2,VDD*%
%TO.N,+6V*%
X81900000Y-76400000D03*
%TO.P,D12,3,DOUT*%
%TO.N,Net-(D12-DOUT)*%
X81900000Y-75500000D03*
%TO.P,D12,4,GND*%
%TO.N,GND*%
X81000000Y-75500000D03*
%TD*%
%TO.P,D3,1,DIN*%
%TO.N,Net-(D2-DOUT)*%
X153100000Y-74900000D03*
%TO.P,D3,2,VDD*%
%TO.N,+6V*%
X154000000Y-74900000D03*
%TO.P,D3,3,DOUT*%
%TO.N,Net-(D3-DOUT)*%
X154000000Y-74000000D03*
%TO.P,D3,4,GND*%
%TO.N,GND*%
X153100000Y-74000000D03*
%TD*%
%TO.P,D9,1,DIN*%
%TO.N,Net-(D8-DOUT)*%
X122600000Y-84400000D03*
%TO.P,D9,2,VDD*%
%TO.N,+6V*%
X123500000Y-84400000D03*
%TO.P,D9,3,DOUT*%
%TO.N,Net-(D10-DIN)*%
X123500000Y-83500000D03*
%TO.P,D9,4,GND*%
%TO.N,GND*%
X122600000Y-83500000D03*
%TD*%
%TO.P,D5,1,DIN*%
%TO.N,Net-(D4-DOUT)*%
X151428400Y-97882700D03*
%TO.P,D5,2,VDD*%
%TO.N,+6V*%
X152328400Y-97882700D03*
%TO.P,D5,3,DOUT*%
%TO.N,Net-(D5-DOUT)*%
X152328400Y-96982700D03*
%TO.P,D5,4,GND*%
%TO.N,GND*%
X151428400Y-96982700D03*
%TD*%
D20*
%TO.P,S1,A1,COM_1*%
%TO.N,GND*%
X77499400Y-117249300D03*
%TO.P,S1,B1,COM_2*%
X83499400Y-117249300D03*
%TO.P,S1,C1,NO_1*%
%TO.N,Net-(S1-NO_1)*%
X77499400Y-120999300D03*
%TO.P,S1,D1,NO_2*%
X83499400Y-120999300D03*
%TD*%
D10*
%TO.P,D1,1,DIN*%
%TO.N,Net-(D1-DIN)*%
X163600000Y-88900000D03*
%TO.P,D1,2,VDD*%
%TO.N,+6V*%
X164500000Y-88900000D03*
%TO.P,D1,3,DOUT*%
%TO.N,Net-(D1-DOUT)*%
X164500000Y-88000000D03*
%TO.P,D1,4,GND*%
%TO.N,GND*%
X163600000Y-88000000D03*
%TD*%
%TO.P,D14,1,DIN*%
%TO.N,Net-(D13-DOUT)*%
X98420600Y-93179000D03*
%TO.P,D14,2,VDD*%
%TO.N,+6V*%
X99320600Y-93179000D03*
%TO.P,D14,3,DOUT*%
%TO.N,Net-(D14-DOUT)*%
X99320600Y-92279000D03*
%TO.P,D14,4,GND*%
%TO.N,GND*%
X98420600Y-92279000D03*
%TD*%
%TO.P,D13,1,DIN*%
%TO.N,Net-(D12-DOUT)*%
X88541100Y-84992600D03*
%TO.P,D13,2,VDD*%
%TO.N,+6V*%
X89441100Y-84992600D03*
%TO.P,D13,3,DOUT*%
%TO.N,Net-(D13-DOUT)*%
X89441100Y-84092600D03*
%TO.P,D13,4,GND*%
%TO.N,GND*%
X88541100Y-84092600D03*
%TD*%
D21*
%TO.N,Net-(D4-DOUT)*%
X154487000Y-99087600D03*
X154362000Y-87490100D03*
%TO.N,Net-(U1-PA5)*%
X162536000Y-120611000D03*
%TO.N,Net-(J1-COM)*%
X82883300Y-129357000D03*
%TO.N,Net-(U2-IN)*%
X162017000Y-128664000D03*
%TO.N,Net-(D1-DIN)*%
X162249000Y-113300000D03*
X162604000Y-88754400D03*
%TO.N,Net-(U1-PA6)*%
X164582000Y-120536000D03*
%TO.N,Net-(U1-~{RESET}{slash}PB3)*%
X166907000Y-123864000D03*
%TO.N,Net-(U1-PA4)*%
X159384000Y-122891000D03*
%TO.N,+6V*%
X163459000Y-91277500D03*
X165069000Y-128703000D03*
X164013000Y-126753000D03*
X166387000Y-79915300D03*
%TO.N,GND*%
X165777000Y-133930000D03*
X82907000Y-126515000D03*
X163536000Y-128638000D03*
X85318700Y-117297000D03*
X161789000Y-87222300D03*
X162191000Y-76524900D03*
X97517100Y-92473100D03*
X78261500Y-89071200D03*
X79042800Y-102640000D03*
X142055000Y-79976700D03*
X133178000Y-90329400D03*
X151741000Y-84720200D03*
X133251000Y-75161400D03*
X121398000Y-83131700D03*
X88292900Y-82825500D03*
X149487000Y-95656600D03*
X114102000Y-77358200D03*
X155260000Y-73703700D03*
X86963400Y-76127900D03*
%TD*%
D22*
%TO.N,Net-(D15-DOUT)*%
X79710800Y-99210800D02*
X82500000Y-102000000D01*
X79710800Y-89835500D02*
X79710800Y-99210800D01*
%TO.N,Net-(D14-DOUT)*%
X99141800Y-92100200D02*
X99320600Y-92279000D01*
X99131200Y-92100200D02*
X99141800Y-92100200D01*
X99131200Y-92100100D02*
X99131200Y-92100200D01*
X98681100Y-91650000D02*
X99131200Y-92100100D01*
X97086400Y-91650000D02*
X98681100Y-91650000D01*
X85230700Y-103506000D02*
X97086400Y-91650000D01*
X82205700Y-103506000D02*
X85230700Y-103506000D01*
X81600000Y-102900000D02*
X82205700Y-103506000D01*
%TO.N,Net-(D13-DOUT)*%
X99005000Y-93763400D02*
X98420600Y-93179000D01*
X99636500Y-93763400D02*
X99005000Y-93763400D01*
X100396000Y-93003900D02*
X99636500Y-93763400D01*
X100396000Y-91700700D02*
X100396000Y-93003900D01*
X92787900Y-84092600D02*
X100396000Y-91700700D01*
X89441100Y-84092600D02*
X92787900Y-84092600D01*
%TO.N,Net-(D12-DOUT)*%
X87517300Y-83968800D02*
X88541100Y-84992600D01*
X87517300Y-81117300D02*
X87517300Y-83968800D01*
X81900000Y-75500000D02*
X87517300Y-81117300D01*
%TO.N,Net-(D11-DOUT)*%
X91911800Y-74041300D02*
X92511500Y-74641000D01*
X81531800Y-74041300D02*
X91911800Y-74041300D01*
X80395000Y-75178100D02*
X81531800Y-74041300D01*
X80395000Y-75795000D02*
X80395000Y-75178100D01*
X81000000Y-76400000D02*
X80395000Y-75795000D01*
%TO.N,Net-(D10-DOUT)*%
X115707000Y-76569900D02*
X116649900Y-77512400D01*
X92640400Y-76569900D02*
X115707000Y-76569900D01*
X91611500Y-75541000D02*
X92640400Y-76569900D01*
X116649900Y-77512400D02*
X116650000Y-77512400D01*
%TO.N,Net-(D10-DIN)*%
X118030000Y-80692100D02*
X115750000Y-78412400D01*
X120692000Y-80692100D02*
X118030000Y-80692100D01*
X123500000Y-83500000D02*
X120692000Y-80692100D01*
X115749900Y-78412400D02*
X115750000Y-78412400D01*
%TO.N,Net-(D8-DOUT)*%
X123194000Y-84994300D02*
X122600000Y-84400000D01*
X124359000Y-84994300D02*
X123194000Y-84994300D01*
X132591000Y-76762700D02*
X124359000Y-84994300D01*
X132591000Y-76090700D02*
X132591000Y-76762700D01*
X132000000Y-75500000D02*
X132591000Y-76090700D01*
%TO.N,Net-(D7-DOUT)*%
X130475000Y-75774600D02*
X131100000Y-76400000D01*
X130475000Y-75209800D02*
X130475000Y-75774600D01*
X130828000Y-74856900D02*
X130475000Y-75209800D01*
X131010000Y-74856900D02*
X130828000Y-74856900D01*
X131198000Y-74669800D02*
X131010000Y-74856900D01*
X131198000Y-74669800D02*
X131010000Y-74856900D01*
X139583000Y-74405200D02*
X145246000Y-80067100D01*
X131462000Y-74405200D02*
X139583000Y-74405200D01*
X131198000Y-74669800D02*
X131462000Y-74405200D01*
X145245600Y-80067200D02*
X145245500Y-80067300D01*
X145246000Y-80067200D02*
X145245600Y-80067200D01*
X145246000Y-80067100D02*
X145246000Y-80067200D01*
X145246000Y-80067200D02*
X145246000Y-80067100D01*
%TO.N,Net-(D6-DOUT)*%
X144345500Y-81060400D02*
X144345500Y-80967300D01*
X144346000Y-81060900D02*
X144345500Y-81060400D01*
X144346000Y-81154500D02*
X144346000Y-81060900D01*
X135000000Y-90500000D02*
X144346000Y-81154500D01*
X144346000Y-81060900D02*
X144346000Y-80967300D01*
%TO.N,Net-(D5-DOUT)*%
X136378000Y-93678200D02*
X134100000Y-91400000D01*
X149024000Y-93678200D02*
X136378000Y-93678200D01*
X152054000Y-96708100D02*
X149024000Y-93678200D01*
X152191100Y-96845400D02*
X152328400Y-96982700D01*
X152191000Y-96845400D02*
X152191100Y-96845400D01*
X152191000Y-96845400D02*
X152054000Y-96708100D01*
X152191000Y-96845400D02*
X152054000Y-96708100D01*
%TO.N,Net-(D4-DOUT)*%
X152898000Y-86026000D02*
X152205000Y-86026000D01*
X154362000Y-87490100D02*
X152898000Y-86026000D01*
X151428400Y-97882700D02*
X151428200Y-97882900D01*
X152633000Y-99087600D02*
X151703000Y-98157600D01*
X154487000Y-99087600D02*
X152633000Y-99087600D01*
X151428000Y-97882700D02*
X151428200Y-97882900D01*
X151703000Y-98157300D02*
X151428000Y-97882700D01*
X151703000Y-98157600D02*
X151703000Y-98157300D01*
X151428200Y-97882900D02*
X151703000Y-98157600D01*
%TO.N,Net-(D3-DOUT)*%
X150670000Y-86291500D02*
X151305000Y-86926000D01*
X150670000Y-84763100D02*
X150670000Y-86291500D01*
X154577000Y-80856400D02*
X150670000Y-84763100D01*
X154577000Y-74577200D02*
X154577000Y-80856400D01*
X154000000Y-74000000D02*
X154577000Y-74577200D01*
%TO.N,Net-(D2-DOUT)*%
X153198000Y-73220300D02*
X153010000Y-73407400D01*
X153198000Y-73220300D02*
X153010000Y-73407400D01*
X152505000Y-74304900D02*
X153100000Y-74900000D01*
X152505000Y-73686900D02*
X152505000Y-74304900D01*
X152784000Y-73407400D02*
X152505000Y-73686900D01*
X153010000Y-73407400D02*
X152784000Y-73407400D01*
X165304000Y-76810200D02*
X165029400Y-76535600D01*
X165029700Y-76535600D02*
X165304300Y-76810200D01*
X165029400Y-76535600D02*
X165029700Y-76535600D01*
X153462000Y-72955700D02*
X153198000Y-73220300D01*
X161450000Y-72955700D02*
X153462000Y-72955700D01*
X165029400Y-76535600D02*
X161450000Y-72955700D01*
%TO.N,Net-(D1-DOUT)*%
X164404000Y-77710200D02*
X164404000Y-77710300D01*
X164500000Y-77805900D02*
X164404000Y-77710300D01*
X164500000Y-88000000D02*
X164500000Y-77805900D01*
X164404000Y-77710300D02*
X164404000Y-77710200D01*
X164404300Y-77710200D02*
X164404000Y-77710200D01*
%TO.N,Net-(U1-PA5)*%
X162510000Y-121816000D02*
X162510000Y-121985000D01*
X162510000Y-121816000D02*
X162510000Y-121985000D01*
X162510000Y-121648000D02*
X162510000Y-121816000D01*
X162510000Y-121732000D02*
X162510000Y-121247000D01*
X162510000Y-121310000D02*
X162510000Y-121247000D01*
X162510000Y-120636000D02*
X162536000Y-120611000D01*
X162510000Y-121247000D02*
X162510000Y-120636000D01*
X162510200Y-121985200D02*
X162510000Y-121985000D01*
X162510400Y-121985200D02*
X162510200Y-121985200D01*
%TO.N,Net-(S1-NO_1)*%
X77499400Y-120999300D02*
X77499400Y-120999000D01*
X83499400Y-120999000D02*
X83499400Y-120999300D01*
X77499400Y-120999000D02*
X83499400Y-120999000D01*
X161012000Y-124423000D02*
X161292000Y-124423000D01*
X158597000Y-126838000D02*
X161012000Y-124423000D01*
X88096200Y-126838000D02*
X158597000Y-126838000D01*
X83499400Y-122241000D02*
X88096200Y-126838000D01*
X83499400Y-120999300D02*
X83499400Y-122241000D01*
X161572600Y-124423000D02*
X161572900Y-124422700D01*
X161292000Y-124423000D02*
X161572600Y-124423000D01*
%TO.N,Net-(U1-AREF{slash}PA0)*%
X161573000Y-125630000D02*
X161573000Y-124923000D01*
X161573000Y-125630000D02*
X161573000Y-124923000D01*
X164810000Y-118413500D02*
X164269700Y-117873200D01*
X164810500Y-118413500D02*
X164810000Y-118413500D01*
X164270000Y-117873000D02*
X164810500Y-118413500D01*
X161573000Y-126337000D02*
X161573000Y-125630000D01*
X162811000Y-127575000D02*
X161573000Y-126337000D01*
X166600000Y-127575000D02*
X162811000Y-127575000D01*
X167827000Y-126347000D02*
X166600000Y-127575000D01*
X167827000Y-121431000D02*
X167827000Y-126347000D01*
X165351000Y-118954000D02*
X167827000Y-121431000D01*
X164810500Y-118413500D02*
X165351000Y-118954000D01*
X161573000Y-124922800D02*
X161573000Y-124923000D01*
X161572900Y-124922700D02*
X161573000Y-124922800D01*
%TO.N,Net-(J1-COM)*%
X82851400Y-129389000D02*
X82883300Y-129357000D01*
X82844000Y-129357000D02*
X81357200Y-130844000D01*
X82883300Y-129357000D02*
X82844000Y-129357000D01*
X81357200Y-130844000D02*
X81357200Y-130844100D01*
%TO.N,Net-(U2-IN)*%
X162054200Y-129402700D02*
X162054200Y-130104500D01*
X162054000Y-129402500D02*
X162054200Y-129402700D01*
X162054000Y-130104000D02*
X162054000Y-129402500D01*
X162054000Y-128701000D02*
X162017000Y-128664000D01*
X162054000Y-129402500D02*
X162054000Y-128701000D01*
%TO.N,Net-(D1-DIN)*%
X163454000Y-88754400D02*
X163600000Y-88900000D01*
X162604000Y-88754400D02*
X163454000Y-88754400D01*
X162619700Y-116822800D02*
X162619700Y-117873200D01*
X162620000Y-116822500D02*
X162619700Y-116822800D01*
X162620000Y-117873000D02*
X162620000Y-116822500D01*
X162620000Y-113670000D02*
X162249000Y-113300000D01*
X162620000Y-116822500D02*
X162620000Y-113670000D01*
%TO.N,Net-(U1-PA6)*%
X164536600Y-121959000D02*
X164510400Y-121985200D01*
X164537000Y-121959000D02*
X164536600Y-121959000D01*
X164546000Y-121950000D02*
X164537000Y-121959000D01*
X164546000Y-121949000D02*
X164546000Y-121950000D01*
X164582000Y-121913000D02*
X164546000Y-121949000D01*
X164582000Y-120536000D02*
X164582000Y-121913000D01*
X164537000Y-121959000D02*
X164528000Y-121968000D01*
%TO.N,Net-(U1-~{RESET}{slash}PB3)*%
X166849000Y-123923000D02*
X166148000Y-123923000D01*
X166907000Y-123864000D02*
X166849000Y-123923000D01*
X165448200Y-123923000D02*
X165447900Y-123922700D01*
X165798000Y-123923000D02*
X165448200Y-123923000D01*
X166148000Y-123923000D02*
X165798000Y-123923000D01*
X166148000Y-123923000D02*
X165798000Y-123923000D01*
%TO.N,Net-(U1-PA4)*%
X161542000Y-122891000D02*
X161558000Y-122907000D01*
X159384000Y-122891000D02*
X161542000Y-122891000D01*
X161558000Y-122907000D02*
X161573000Y-122922000D01*
X161573000Y-122923000D02*
X161558000Y-122907000D01*
X161572900Y-122922600D02*
X161572900Y-122922700D01*
X161573000Y-122922500D02*
X161572900Y-122922600D01*
X161573000Y-122922000D02*
X161573000Y-122922500D01*
X161573000Y-122922500D02*
X161573000Y-122923000D01*
X161573000Y-122922000D02*
X161573000Y-122922500D01*
X161573000Y-122922500D02*
X161573000Y-122923000D01*
X161573000Y-122922000D02*
X161573000Y-122922500D01*
X161573000Y-122922500D02*
X161573000Y-122923000D01*
%TO.N,+6V*%
X164010000Y-126750000D02*
X164013000Y-126753000D01*
X164010000Y-126305000D02*
X164010000Y-126750000D01*
X165054000Y-128717000D02*
X165069000Y-128703000D01*
X165054000Y-129410000D02*
X165054000Y-128717000D01*
X83110000Y-89835500D02*
X80610800Y-89835500D01*
X83110000Y-102290000D02*
X83110000Y-91198300D01*
X82500000Y-102900000D02*
X83110000Y-102290000D01*
X124091000Y-83809300D02*
X124091000Y-78412400D01*
X123500000Y-84400000D02*
X124091000Y-83809300D01*
X99205300Y-91198300D02*
X83110000Y-91198300D01*
X99916200Y-91909200D02*
X99205300Y-91198300D01*
X99916200Y-92583400D02*
X99916200Y-91909200D01*
X99320600Y-93179000D02*
X99916200Y-92583400D01*
X83110000Y-91198300D02*
X83110000Y-89835500D01*
X85201200Y-87744300D02*
X83110000Y-89835500D01*
X86689400Y-87744300D02*
X85201200Y-87744300D01*
X89441100Y-84992600D02*
X86689400Y-87744300D01*
X149189000Y-80967300D02*
X145246000Y-80967300D01*
X151628000Y-87503200D02*
X152205000Y-86926000D01*
X150918000Y-87503200D02*
X151628000Y-87503200D01*
X149189000Y-85774700D02*
X150918000Y-87503200D01*
X149189000Y-80967300D02*
X149189000Y-85774700D01*
X135000000Y-91400000D02*
X152205000Y-91400000D01*
X81900000Y-84443100D02*
X81900000Y-76983100D01*
X85201200Y-87744300D02*
X81900000Y-84443100D01*
X93159400Y-74893100D02*
X92511500Y-75541000D01*
X93159400Y-74398000D02*
X93159400Y-74893100D01*
X92346500Y-73585100D02*
X93159400Y-74398000D01*
X81315300Y-73585100D02*
X92346500Y-73585100D01*
X79926700Y-74973700D02*
X81315300Y-73585100D01*
X79926700Y-76243200D02*
X79926700Y-74973700D01*
X80666600Y-76983100D02*
X79926700Y-76243200D01*
X81900000Y-76983100D02*
X80666600Y-76983100D01*
X81900000Y-76983100D02*
X81900000Y-76400000D01*
X163459000Y-89941100D02*
X163459000Y-90909200D01*
X164500000Y-88900000D02*
X163459000Y-89941100D01*
X152205000Y-91400000D02*
X152205000Y-86926000D01*
X163459000Y-90909200D02*
X152205000Y-90909200D01*
X127770000Y-78412400D02*
X129979000Y-76202700D01*
X124091000Y-78412400D02*
X127770000Y-78412400D01*
X131088000Y-77311600D02*
X129979000Y-76202700D01*
X132000000Y-76400000D02*
X131088000Y-77311600D01*
X143403000Y-73925000D02*
X149189000Y-79710900D01*
X131080000Y-73925000D02*
X143403000Y-73925000D01*
X129979000Y-75025300D02*
X131080000Y-73925000D01*
X129979000Y-76202700D02*
X129979000Y-75025300D01*
X165304000Y-78832300D02*
X165304000Y-77710200D01*
X166387000Y-79915300D02*
X165304000Y-78832300D01*
X151713000Y-77186800D02*
X149189000Y-79710900D01*
X154000000Y-74900000D02*
X151713000Y-77186800D01*
X149189000Y-79710900D02*
X149189000Y-80967300D01*
X163459000Y-90909200D02*
X163459000Y-91277500D01*
X117244000Y-78412400D02*
X117244000Y-78137600D01*
X115629000Y-75541000D02*
X92511500Y-75541000D01*
X117244000Y-77156100D02*
X115629000Y-75541000D01*
X117244000Y-78137600D02*
X117244000Y-77156100D01*
X152328000Y-97882700D02*
X152328000Y-97882500D01*
X152328000Y-97882700D02*
X152328000Y-97882500D01*
X152960000Y-92155200D02*
X152205000Y-91400000D01*
X152960000Y-97250900D02*
X152960000Y-92155200D01*
X152328000Y-97882500D02*
X152960000Y-97250900D01*
X165304300Y-77710200D02*
X165304000Y-77710200D01*
X165054200Y-129930700D02*
X165054200Y-130104500D01*
X165054000Y-129930500D02*
X165054200Y-129930700D01*
X165054000Y-129757000D02*
X165054000Y-129930500D01*
X165054000Y-129930500D02*
X165054000Y-130074000D01*
X116787300Y-78275000D02*
X116649900Y-78412400D01*
X116787500Y-78275000D02*
X116787300Y-78275000D01*
X116925000Y-78137600D02*
X116787500Y-78275000D01*
X117244000Y-78137600D02*
X116925000Y-78137600D01*
X145245500Y-80967300D02*
X145246000Y-80967300D01*
X152328400Y-97882700D02*
X152328000Y-97882700D01*
X164010000Y-125860600D02*
X164010400Y-125860200D01*
X164010000Y-125971000D02*
X164010000Y-125860600D01*
X164010000Y-126082000D02*
X164010000Y-125971000D01*
X116650000Y-78412400D02*
X117244000Y-78412400D01*
X116787500Y-78275000D02*
X116650000Y-78412400D01*
X117244000Y-78412400D02*
X124091000Y-78412400D01*
%TO.N,GND*%
X163554000Y-128655000D02*
X163536000Y-128638000D01*
X163554000Y-129424000D02*
X163554000Y-128655000D01*
X162567000Y-88000000D02*
X163600000Y-88000000D01*
X161789000Y-87222300D02*
X162567000Y-88000000D01*
X98226500Y-92473100D02*
X98420600Y-92279000D01*
X97517100Y-92473100D02*
X98226500Y-92473100D01*
X79575100Y-89071200D02*
X79710800Y-88935500D01*
X78261500Y-89071200D02*
X79575100Y-89071200D01*
X162510000Y-124923000D02*
X163357000Y-124923000D01*
X79682500Y-102000000D02*
X81600000Y-102000000D01*
X79042800Y-102640000D02*
X79682500Y-102000000D01*
X133929000Y-90329400D02*
X134100000Y-90500000D01*
X133178000Y-90329400D02*
X133929000Y-90329400D01*
X151305000Y-85156200D02*
X151305000Y-86026000D01*
X151741000Y-84720200D02*
X151305000Y-85156200D01*
X122232000Y-83131700D02*
X122600000Y-83500000D01*
X121398000Y-83131700D02*
X122232000Y-83131700D01*
X88541100Y-83073700D02*
X88541100Y-84092600D01*
X88292900Y-82825500D02*
X88541100Y-83073700D01*
X131293000Y-75307100D02*
X131100000Y-75500000D01*
X131304000Y-75307100D02*
X131293000Y-75307100D01*
X131304000Y-75307000D02*
X131304000Y-75307100D01*
X131697000Y-74913200D02*
X131304000Y-75307000D01*
X133003000Y-74913200D02*
X131697000Y-74913200D01*
X133251000Y-75161400D02*
X133003000Y-74913200D01*
X153242000Y-73857600D02*
X153100000Y-74000000D01*
X153253000Y-73857600D02*
X153242000Y-73857600D01*
X153253000Y-73857500D02*
X153253000Y-73857600D01*
X153703000Y-73407400D02*
X153253000Y-73857500D01*
X154963000Y-73407400D02*
X153703000Y-73407400D01*
X155260000Y-73703700D02*
X154963000Y-73407400D01*
X163510000Y-124407000D02*
X163510000Y-124650000D01*
X163479000Y-124923000D02*
X163357000Y-124923000D01*
X163510000Y-124892000D02*
X163479000Y-124923000D01*
X163510000Y-124650000D02*
X163510000Y-124892000D01*
X163554000Y-130000000D02*
X163554000Y-130192000D01*
X163554000Y-129808000D02*
X163554000Y-130000000D01*
X77912800Y-117249000D02*
X77499700Y-117249000D01*
X77499700Y-117249000D02*
X82672400Y-117249000D01*
X86963400Y-74853500D02*
X87175900Y-74641000D01*
X86963400Y-76127900D02*
X86963400Y-74853500D01*
X81859000Y-74641000D02*
X87175900Y-74641000D01*
X81000000Y-75500000D02*
X81859000Y-74641000D01*
X87175900Y-74641000D02*
X91611500Y-74641000D01*
X81533100Y-127889000D02*
X81374800Y-127889000D01*
X82907000Y-126515000D02*
X81533100Y-127889000D01*
X163510000Y-125076000D02*
X163510000Y-125468000D01*
X163357000Y-124923000D02*
X163510000Y-125076000D01*
X144255000Y-79976700D02*
X144300000Y-80022000D01*
X142055000Y-79976700D02*
X144255000Y-79976700D01*
X164119000Y-76524900D02*
X164404000Y-76810200D01*
X162191000Y-76524900D02*
X164119000Y-76524900D01*
X83499100Y-117249000D02*
X83499400Y-117249300D01*
X83085900Y-117249000D02*
X83499100Y-117249000D01*
X82672400Y-117249000D02*
X83085900Y-117249000D01*
X83085900Y-117249000D02*
X82672400Y-117249000D01*
X163510400Y-125664400D02*
X163510400Y-125860200D01*
X163510000Y-125664000D02*
X163510400Y-125664400D01*
X163510000Y-125468000D02*
X163510000Y-125664000D01*
X163510000Y-125468000D02*
X163510000Y-125664000D01*
X77499700Y-117249000D02*
X77499400Y-117249300D01*
X163510400Y-124285600D02*
X163510400Y-123922700D01*
X163510000Y-124286000D02*
X163510400Y-124285600D01*
X163510000Y-124650000D02*
X163510000Y-124286000D01*
X163510000Y-124286000D02*
X163510000Y-123923000D01*
X85270600Y-117249000D02*
X85318700Y-117297000D01*
X84326400Y-117249000D02*
X85270600Y-117249000D01*
X84326400Y-117249000D02*
X84326100Y-117249300D01*
X83499400Y-117249300D02*
X84326100Y-117249300D01*
X144345700Y-80067100D02*
X144345500Y-80067300D01*
X144346000Y-80067100D02*
X144345700Y-80067100D01*
X144346000Y-80067000D02*
X144346000Y-80067100D01*
X144300000Y-80022000D02*
X144346000Y-80067000D01*
X144346000Y-80067300D02*
X144300000Y-80022000D01*
X144346000Y-80067100D02*
X144346000Y-80067300D01*
X163554200Y-130853300D02*
X163554200Y-130192000D01*
X163554000Y-130853500D02*
X163554200Y-130853300D01*
X163554000Y-130000000D02*
X163554000Y-130853500D01*
X163554000Y-131707000D02*
X165777000Y-133930000D01*
X163554000Y-130853500D02*
X163554000Y-131707000D01*
X81374600Y-127889100D02*
X81374600Y-127889300D01*
X81374700Y-127889000D02*
X81374600Y-127889100D01*
X81374800Y-127889000D02*
X81374700Y-127889000D01*
X81374800Y-127889000D02*
X81374700Y-127889000D01*
X150102000Y-95656600D02*
X151428000Y-96982700D01*
X149487000Y-95656600D02*
X150102000Y-95656600D01*
X115750000Y-77512200D02*
X115673000Y-77435300D01*
X115750000Y-77512400D02*
X115750000Y-77512200D01*
X115596000Y-77358200D02*
X115750000Y-77512400D01*
X114102000Y-77358200D02*
X115596000Y-77358200D01*
%TD*%
M02*
