%TF.GenerationSoftware,KiCad,Pcbnew,9.0.7*%
%TF.CreationDate,2026-01-22T21:49:42+01:00*%
%TF.ProjectId,RamadanCard,52616d61-6461-46e4-9361-72642e6b6963,rev?*%
%TF.SameCoordinates,Original*%
%TF.FileFunction,Soldermask,Top*%
%TF.FilePolarity,Negative*%
%FSLAX46Y46*%
G04 Gerber Fmt 4.6, Leading zero omitted, Abs format (unit mm)*
G04 Created by KiCad (PCBNEW 9.0.7) date 2026-01-22 21:49:42*
%MOMM*%
%LPD*%
G01*
G04 APERTURE LIST*
G04 Aperture macros list*
%AMRoundRect*
0 Rectangle with rounded corners*
0 $1 Rounding radius*
0 $2 $3 $4 $5 $6 $7 $8 $9 X,Y pos of 4 corners*
0 Add a 4 corners polygon primitive as box body*
4,1,4,$2,$3,$4,$5,$6,$7,$8,$9,$2,$3,0*
0 Add four circle primitives for the rounded corners*
1,1,$1+$1,$2,$3*
1,1,$1+$1,$4,$5*
1,1,$1+$1,$6,$7*
1,1,$1+$1,$8,$9*
0 Add four rect primitives between the rounded corners*
20,1,$1+$1,$2,$3,$4,$5,0*
20,1,$1+$1,$4,$5,$6,$7,0*
20,1,$1+$1,$6,$7,$8,$9,0*
20,1,$1+$1,$8,$9,$2,$3,0*%
%AMFreePoly0*
4,1,9,3.862500,-0.866500,0.737500,-0.866500,0.737500,-0.450000,-0.737500,-0.450000,-0.737500,0.450000,0.737500,0.450000,0.737500,0.866500,3.862500,0.866500,3.862500,-0.866500,3.862500,-0.866500,$1*%
G04 Aperture macros list end*
%ADD10R,0.550000X0.550000*%
%ADD11RoundRect,0.200000X0.200000X0.275000X-0.200000X0.275000X-0.200000X-0.275000X0.200000X-0.275000X0*%
%ADD12R,0.900000X1.300000*%
%ADD13FreePoly0,270.000000*%
%ADD14C,0.900000*%
%ADD15R,1.200000X0.900000*%
%ADD16R,0.900000X0.800000*%
%ADD17RoundRect,0.062500X-0.350000X-0.062500X0.350000X-0.062500X0.350000X0.062500X-0.350000X0.062500X0*%
%ADD18RoundRect,0.062500X-0.062500X-0.350000X0.062500X-0.350000X0.062500X0.350000X-0.062500X0.350000X0*%
%ADD19R,2.500000X2.500000*%
%ADD20R,1.000000X0.750000*%
G04 APERTURE END LIST*
D10*
%TO.C,D14*%
X148545100Y-87094200D03*
X149495100Y-87094200D03*
X149495100Y-86144200D03*
X148545100Y-86144200D03*
%TD*%
D11*
%TO.C,R1*%
X164269700Y-117873200D03*
X162619700Y-117873200D03*
%TD*%
D12*
%TO.C,U2*%
X165054200Y-130104500D03*
D13*
X163554200Y-130192000D03*
D12*
X162054200Y-130104500D03*
%TD*%
D14*
%TO.C,J1*%
X79224600Y-128639300D03*
X79224600Y-131639300D03*
D15*
X81374600Y-127889300D03*
X81357202Y-130844138D03*
X81374600Y-132389300D03*
D16*
X80324600Y-126339300D03*
X80324600Y-133939300D03*
X78124600Y-133939300D03*
X78124600Y-126339300D03*
%TD*%
D10*
%TO.C,D9*%
X116025000Y-87675800D03*
X116975000Y-87675800D03*
X116975000Y-86725800D03*
X116025000Y-86725800D03*
%TD*%
%TO.C,D2*%
X149285600Y-75900700D03*
X150235600Y-75900700D03*
X150235600Y-74950700D03*
X149285600Y-74950700D03*
%TD*%
%TO.C,D8*%
X102123800Y-86136300D03*
X103073800Y-86136300D03*
X103073800Y-85186300D03*
X102123800Y-85186300D03*
%TD*%
D17*
%TO.C,U1*%
X161572900Y-122922700D03*
X161572900Y-123422700D03*
X161572900Y-123922700D03*
X161572900Y-124422700D03*
X161572900Y-124922700D03*
D18*
X162510400Y-125860200D03*
X163010400Y-125860200D03*
X163510400Y-125860200D03*
X164010400Y-125860200D03*
X164510400Y-125860200D03*
D17*
X165447900Y-124922700D03*
X165447900Y-124422700D03*
X165447900Y-123922700D03*
X165447900Y-123422700D03*
X165447900Y-122922700D03*
D18*
X164510400Y-121985200D03*
X164010400Y-121985200D03*
X163510400Y-121985200D03*
X163010400Y-121985200D03*
X162510400Y-121985200D03*
D19*
X163510400Y-123922700D03*
%TD*%
D10*
%TO.C,D3*%
X134054000Y-81747500D03*
X135004000Y-81747500D03*
X135004000Y-80797500D03*
X134054000Y-80797500D03*
%TD*%
%TO.C,D5*%
X94373200Y-76450100D03*
X95323200Y-76450100D03*
X95323200Y-75500100D03*
X94373200Y-75500100D03*
%TD*%
%TO.C,D1*%
X163987600Y-79303900D03*
X164937600Y-79303900D03*
X164937600Y-78353900D03*
X163987600Y-78353900D03*
%TD*%
D20*
%TO.C,S1*%
X77499400Y-117249300D03*
X83499400Y-117249300D03*
X77499400Y-120999300D03*
X83499400Y-120999300D03*
%TD*%
D10*
%TO.C,D15*%
X146025000Y-93975000D03*
X146975000Y-93975000D03*
X146975000Y-93025000D03*
X146025000Y-93025000D03*
%TD*%
%TO.C,D7*%
X86000000Y-92500000D03*
X86950000Y-92500000D03*
X86950000Y-91550000D03*
X86000000Y-91550000D03*
%TD*%
%TO.C,D4*%
X115773000Y-79854900D03*
X116723000Y-79854900D03*
X116723000Y-78904900D03*
X115773000Y-78904900D03*
%TD*%
%TO.C,D6*%
X81025000Y-77769700D03*
X81975000Y-77769700D03*
X81975000Y-76819700D03*
X81025000Y-76819700D03*
%TD*%
%TO.C,D16*%
X163943700Y-90739600D03*
X164893700Y-90739600D03*
X164893700Y-89789600D03*
X163943700Y-89789600D03*
%TD*%
M02*
