%TF.GenerationSoftware,KiCad,Pcbnew,9.0.7-9.0.7~ubuntu24.04.1*%
%TF.CreationDate,2026-02-10T19:55:17+01:00*%
%TF.ProjectId,RamadanCard,52616d61-6461-46e4-9361-72642e6b6963,rev?*%
%TF.SameCoordinates,Original*%
%TF.FileFunction,Soldermask,Top*%
%TF.FilePolarity,Negative*%
%FSLAX46Y46*%
G04 Gerber Fmt 4.6, Leading zero omitted, Abs format (unit mm)*
G04 Created by KiCad (PCBNEW 9.0.7-9.0.7~ubuntu24.04.1) date 2026-02-10 19:55:17*
%MOMM*%
%LPD*%
G01*
G04 APERTURE LIST*
G04 Aperture macros list*
%AMRoundRect*
0 Rectangle with rounded corners*
0 $1 Rounding radius*
0 $2 $3 $4 $5 $6 $7 $8 $9 X,Y pos of 4 corners*
0 Add a 4 corners polygon primitive as box body*
4,1,4,$2,$3,$4,$5,$6,$7,$8,$9,$2,$3,0*
0 Add four circle primitives for the rounded corners*
1,1,$1+$1,$2,$3*
1,1,$1+$1,$4,$5*
1,1,$1+$1,$6,$7*
1,1,$1+$1,$8,$9*
0 Add four rect primitives between the rounded corners*
20,1,$1+$1,$2,$3,$4,$5,0*
20,1,$1+$1,$4,$5,$6,$7,0*
20,1,$1+$1,$6,$7,$8,$9,0*
20,1,$1+$1,$8,$9,$2,$3,0*%
%AMFreePoly0*
4,1,9,3.862500,-0.866500,0.737500,-0.866500,0.737500,-0.450000,-0.737500,-0.450000,-0.737500,0.450000,0.737500,0.450000,0.737500,0.866500,3.862500,0.866500,3.862500,-0.866500,3.862500,-0.866500,$1*%
G04 Aperture macros list end*
%ADD10RoundRect,0.125000X0.125000X-0.125000X0.125000X0.125000X-0.125000X0.125000X-0.125000X-0.125000X0*%
%ADD11RoundRect,0.200000X0.200000X0.275000X-0.200000X0.275000X-0.200000X-0.275000X0.200000X-0.275000X0*%
%ADD12R,0.900000X1.300000*%
%ADD13FreePoly0,270.000000*%
%ADD14C,0.900000*%
%ADD15R,1.200000X0.900000*%
%ADD16R,0.900000X0.800000*%
%ADD17RoundRect,0.062500X-0.350000X-0.062500X0.350000X-0.062500X0.350000X0.062500X-0.350000X0.062500X0*%
%ADD18RoundRect,0.062500X-0.062500X-0.350000X0.062500X-0.350000X0.062500X0.350000X-0.062500X0.350000X0*%
%ADD19R,2.500000X2.500000*%
%ADD20R,1.000000X0.750000*%
G04 APERTURE END LIST*
D10*
%TO.C,D2*%
X164404300Y-77710200D03*
X165304300Y-77710200D03*
X165304300Y-76810200D03*
X164404300Y-76810200D03*
%TD*%
%TO.C,D7*%
X144345500Y-80967300D03*
X145245500Y-80967300D03*
X145245500Y-80067300D03*
X144345500Y-80067300D03*
%TD*%
%TO.C,D6*%
X134100000Y-91400000D03*
X135000000Y-91400000D03*
X135000000Y-90500000D03*
X134100000Y-90500000D03*
%TD*%
D11*
%TO.C,R1*%
X164269700Y-117873200D03*
X162619700Y-117873200D03*
%TD*%
D12*
%TO.C,U2*%
X165054200Y-130104500D03*
D13*
X163554200Y-130192000D03*
D12*
X162054200Y-130104500D03*
%TD*%
D14*
%TO.C,J1*%
X79224600Y-128639300D03*
X79224600Y-131639300D03*
D15*
X81374600Y-127889300D03*
X81357202Y-130844138D03*
X81374600Y-132389300D03*
D16*
X80324600Y-126339300D03*
X80324600Y-133939300D03*
X78124600Y-133939300D03*
X78124600Y-126339300D03*
%TD*%
D10*
%TO.C,D11*%
X91611500Y-75541000D03*
X92511500Y-75541000D03*
X92511500Y-74641000D03*
X91611500Y-74641000D03*
%TD*%
%TO.C,D16*%
X79710800Y-89835500D03*
X80610800Y-89835500D03*
X80610800Y-88935500D03*
X79710800Y-88935500D03*
%TD*%
%TO.C,D10*%
X115749900Y-78412400D03*
X116649900Y-78412400D03*
X116649900Y-77512400D03*
X115749900Y-77512400D03*
%TD*%
%TO.C,D15*%
X81600000Y-102900000D03*
X82500000Y-102900000D03*
X82500000Y-102000000D03*
X81600000Y-102000000D03*
%TD*%
%TO.C,D8*%
X131100000Y-76400000D03*
X132000000Y-76400000D03*
X132000000Y-75500000D03*
X131100000Y-75500000D03*
%TD*%
D17*
%TO.C,U1*%
X161572900Y-122922700D03*
X161572900Y-123422700D03*
X161572900Y-123922700D03*
X161572900Y-124422700D03*
X161572900Y-124922700D03*
D18*
X162510400Y-125860200D03*
X163010400Y-125860200D03*
X163510400Y-125860200D03*
X164010400Y-125860200D03*
X164510400Y-125860200D03*
D17*
X165447900Y-124922700D03*
X165447900Y-124422700D03*
X165447900Y-123922700D03*
X165447900Y-123422700D03*
X165447900Y-122922700D03*
D18*
X164510400Y-121985200D03*
X164010400Y-121985200D03*
X163510400Y-121985200D03*
X163010400Y-121985200D03*
X162510400Y-121985200D03*
D19*
X163510400Y-123922700D03*
%TD*%
D10*
%TO.C,D4*%
X151305000Y-86926000D03*
X152205000Y-86926000D03*
X152205000Y-86026000D03*
X151305000Y-86026000D03*
%TD*%
%TO.C,D12*%
X81000000Y-76400000D03*
X81900000Y-76400000D03*
X81900000Y-75500000D03*
X81000000Y-75500000D03*
%TD*%
%TO.C,D3*%
X153100000Y-74900000D03*
X154000000Y-74900000D03*
X154000000Y-74000000D03*
X153100000Y-74000000D03*
%TD*%
%TO.C,D9*%
X122600000Y-84400000D03*
X123500000Y-84400000D03*
X123500000Y-83500000D03*
X122600000Y-83500000D03*
%TD*%
%TO.C,D5*%
X151428400Y-97882700D03*
X152328400Y-97882700D03*
X152328400Y-96982700D03*
X151428400Y-96982700D03*
%TD*%
D20*
%TO.C,S1*%
X77499400Y-117249300D03*
X83499400Y-117249300D03*
X77499400Y-120999300D03*
X83499400Y-120999300D03*
%TD*%
D10*
%TO.C,D1*%
X163600000Y-88900000D03*
X164500000Y-88900000D03*
X164500000Y-88000000D03*
X163600000Y-88000000D03*
%TD*%
%TO.C,D14*%
X98420600Y-93179000D03*
X99320600Y-93179000D03*
X99320600Y-92279000D03*
X98420600Y-92279000D03*
%TD*%
%TO.C,D13*%
X88541100Y-84992600D03*
X89441100Y-84992600D03*
X89441100Y-84092600D03*
X88541100Y-84092600D03*
%TD*%
M02*
