M48
; DRILL file {KiCad 9.0.7-9.0.7~ubuntu24.04.1} date 2026-02-10T19:52:20+0100
; FORMAT={-:-/ absolute / metric / decimal}
; #@! TF.CreationDate,2026-02-10T19:52:20+01:00
; #@! TF.GenerationSoftware,Kicad,Pcbnew,9.0.7-9.0.7~ubuntu24.04.1
; #@! TF.FileFunction,Plated,1,2,PTH
FMAT,2
METRIC
; #@! TA.AperFunction,Plated,PTH,ComponentDrill
T1C0.200
; #@! TA.AperFunction,Plated,PTH,ViaDrill
T2C0.400
%
G90
G05
T1
X162.51Y-122.923
X162.51Y-124.923
X164.51Y-122.923
X164.51Y-124.923
T2
X78.261Y-89.071
X79.043Y-102.64
X82.883Y-129.357
X82.907Y-126.515
X85.319Y-117.297
X86.963Y-76.128
X88.293Y-82.825
X97.517Y-92.473
X114.102Y-77.358
X121.398Y-83.132
X133.178Y-90.329
X133.251Y-75.161
X142.055Y-79.977
X149.487Y-95.657
X151.741Y-84.72
X154.362Y-87.49
X154.487Y-99.088
X155.26Y-73.704
X159.384Y-122.891
X161.789Y-87.222
X162.017Y-128.664
X162.191Y-76.525
X162.249Y-113.3
X162.536Y-120.611
X162.604Y-88.754
X163.459Y-91.277
X163.536Y-128.638
X164.013Y-126.753
X164.582Y-120.536
X165.069Y-128.703
X165.777Y-133.93
X166.387Y-79.915
X166.907Y-123.864
M30
